<svg width="375" height="351" viewBox="0 0 375 351" fill="none" xmlns="http://www.w3.org/2000/svg">
<g clip-path="url(#clip0_610_15461)">
<path opacity="0.31" d="M170.447 283.405L193.845 273.457L181.805 245.135L158.407 255.083L157.817 253.693C156.815 251.339 154.097 250.242 151.74 251.242L147.242 253.153L146.909 252.37C146.519 251.454 145.46 251.025 144.543 251.416L139.15 253.708C138.234 254.098 137.806 255.157 138.196 256.073L138.529 256.856L135.98 257.939L135.647 257.156C135.257 256.24 134.197 255.812 133.281 256.202L127.888 258.494C126.972 258.884 126.543 259.943 126.934 260.859L127.267 261.643L95.5699 275.118C93.2161 276.12 92.1189 278.838 93.1185 281.192L96.0864 288.175L85.5644 292.649L87.4137 296.997C61.1217 308.314 31.5502 320.75 2.86874 321.569C-9.40973 321.919 -33.236 317.375 -54.8488 282.989C-60.7536 273.597 -65.5421 263.547 -69.4477 254.955C-70.126 253.462 -70.7829 251.868 -71.4779 250.18C-74.8242 242.057 -78.6179 232.852 -87.4739 228.384C-100.126 222.004 -111.424 229.177 -120.501 234.939C-121.606 235.641 -122.693 236.331 -123.767 236.988C-126.663 238.759 -129.643 240.677 -132.527 242.536C-147.709 252.315 -163.41 262.428 -180.446 260.743C-195.814 259.222 -209.533 249.062 -217.141 233.556C-232.364 202.535 -229.836 171.159 -209.416 137.635C-191.416 108.085 -162.887 81.9164 -137.713 58.828C-133.905 55.3341 -130.309 52.0354 -126.784 48.7582C-119.621 42.0989 -111.548 34.1616 -106.388 24.2441C-100.514 12.9557 -99.5715 0.834377 -103.803 -9.01171C-107.421 -17.4345 -115.015 -24.6198 -126.368 -30.3675C-144.727 -39.6614 -164.284 -43.5813 -184.495 -42.0129C-202.021 -40.6539 -220.557 -35.1061 -239.587 -25.5242C-273.612 -8.38339 -304.007 18.3774 -331.784 44.7431L-351.55 63.5047L-345.4 69.9854L-325.634 51.2238C-298.352 25.327 -268.559 -0.924454 -235.57 -17.5345C-217.582 -26.5904 -200.165 -31.8264 -183.802 -33.0974C-165.245 -34.5373 -147.279 -30.9339 -130.402 -22.3897C-120.968 -17.6131 -114.78 -11.9225 -112.009 -5.4774C-108.887 1.78638 -109.748 11.3564 -114.311 20.1267C-118.814 28.7804 -126.249 36.068 -132.865 42.2203C-136.369 45.4761 -139.953 48.7653 -143.752 52.2472C-169.36 75.7355 -198.387 102.358 -217.044 132.989C-227.402 149.994 -233.354 166.173 -235.239 182.453C-237.383 200.974 -233.992 219.49 -225.157 237.493C-223.444 240.986 -221.461 244.247 -219.245 247.255C-209.849 260.007 -196.266 268.159 -181.322 269.635C-161.187 271.627 -143.39 260.162 -127.686 250.05C-124.716 248.136 -121.91 246.33 -119.104 244.614C-117.988 243.931 -116.855 243.212 -115.708 242.483C-105.988 236.312 -99.0502 232.552 -91.4937 236.362C-85.6056 239.33 -82.6211 246.577 -79.7341 253.584C-79.0392 255.271 -78.3204 257.016 -77.5755 258.653C-73.5461 267.516 -68.5933 277.903 -62.4077 287.744C-52.1165 304.118 -29.9182 331.443 3.12814 330.498C33.4827 329.632 63.8944 316.847 90.9146 305.218L92.7806 309.607L103.303 305.132L106.347 312.294C107.349 314.648 110.067 315.745 112.42 314.745L144.117 301.27L144.451 302.053C144.841 302.969 145.9 303.397 146.816 303.007L152.209 300.715C153.126 300.325 153.554 299.266 153.164 298.349L152.831 297.566L155.379 296.483L155.713 297.266C156.103 298.183 157.162 298.611 158.078 298.221L163.471 295.929C164.388 295.539 164.816 294.479 164.426 293.563L164.093 292.78L168.591 290.869C170.945 289.867 172.042 287.149 171.042 284.795L170.452 283.405H170.447Z" fill="#FFCF98"/>
<path d="M-219.033 239.099C-221.249 236.091 -223.232 232.83 -224.945 229.336C-233.78 211.334 -237.171 192.817 -235.027 174.296C-233.142 158.017 -227.19 141.838 -216.832 124.833C-198.175 94.2019 -169.148 67.5792 -143.54 44.0909C-139.743 40.6089 -136.157 37.3198 -132.653 34.0639C-126.037 27.9116 -118.602 20.624 -114.099 11.9703C-109.536 3.20001 -108.675 -6.37 -111.797 -13.6338C-114.565 -20.0788 -120.756 -25.7694 -130.19 -30.5461C-147.067 -39.0903 -165.033 -42.6936 -183.59 -41.2537C-199.953 -39.9852 -217.37 -34.7492 -235.358 -25.6909C-268.345 -9.08558 -298.138 17.1683 -325.42 43.0651L-345.186 61.8267L-351.335 55.3459L-331.57 36.5843C-303.792 10.2163 -273.397 -16.5445 -239.373 -33.6734C-220.342 -43.2553 -201.807 -48.8031 -184.28 -50.1645C-164.067 -51.7329 -144.511 -47.8154 -126.154 -38.5191C-114.801 -32.7714 -107.206 -25.5885 -103.589 -17.1633C-99.3571 -7.31961 -100.3 4.80175 -106.173 16.0925C-111.333 26.01 -119.409 33.9449 -126.57 40.6066C-130.095 43.8838 -133.691 47.1825 -137.499 50.6764C-162.67 73.7648 -191.202 99.933 -209.202 129.483C-229.622 163.008 -232.15 194.383 -216.927 225.404C-209.318 240.91 -195.6 251.073 -180.232 252.591C-163.196 254.276 -147.495 244.164 -132.313 234.384C-129.431 232.528 -126.449 230.607 -123.552 228.836C-122.479 228.18 -121.389 227.489 -120.287 226.787C-111.21 221.023 -99.9117 213.852 -87.2596 220.233C-78.4036 224.7 -74.6098 233.906 -71.2635 242.029C-70.5686 243.716 -69.9117 245.313 -69.2334 246.803C-65.3278 255.395 -60.5368 265.446 -54.6344 274.837C-33.024 309.224 -9.19537 313.767 3.0831 313.417C32.5356 312.577 62.9259 299.487 89.7367 287.937L93.6185 286.266L97.1457 294.475L93.2686 296.143C65.7201 308.01 34.4944 321.459 3.33536 322.349C-29.7086 323.294 -51.9093 295.969 -62.2005 279.595C-68.3861 269.753 -73.3389 259.367 -77.3683 250.504C-78.1132 248.867 -78.832 247.122 -79.5269 245.435C-82.4139 238.428 -85.3984 231.181 -91.2865 228.213C-98.843 224.4 -105.781 228.161 -115.501 234.334C-116.648 235.063 -117.778 235.781 -118.897 236.464C-121.703 238.18 -124.509 239.987 -127.479 241.9C-143.183 252.013 -160.98 263.477 -181.115 261.485C-196.059 260.007 -209.642 251.856 -219.038 239.106L-219.033 239.099Z" fill="#F0860E"/>
<path d="M157.025 288.534C157.415 289.45 158.474 289.879 159.39 289.489L164.783 287.197C165.7 286.806 166.128 285.747 165.738 284.831L165.405 284.048L169.903 282.137C172.257 281.135 173.354 278.417 172.354 276.063L159.131 244.963C158.129 242.61 155.411 241.512 153.057 242.512L148.559 244.423L148.226 243.64C147.835 242.724 146.776 242.295 145.86 242.686L140.467 244.978C139.551 245.368 139.122 246.427 139.512 247.343L139.846 248.126L137.297 249.209L136.963 248.426C136.573 247.51 135.514 247.082 134.598 247.472L129.205 249.764C128.288 250.154 127.86 251.213 128.25 252.13L128.583 252.913L96.8865 266.388C94.5327 267.39 93.4355 270.108 94.4351 272.462L107.658 303.562C108.66 305.915 111.378 307.013 113.732 306.013L145.429 292.537L145.762 293.32C146.153 294.237 147.212 294.665 148.128 294.275L153.521 291.983C154.437 291.592 154.866 290.533 154.475 289.617L154.142 288.834L156.691 287.751L157.025 288.534Z" fill="#FFB881"/>
<mask id="mask0_610_15461" style="mask-type:luminance" maskUnits="userSpaceOnUse" x="94" y="242" width="79" height="65">
<path d="M157.024 288.534C157.414 289.45 158.473 289.879 159.389 289.489L164.782 287.197C165.699 286.806 166.127 285.747 165.737 284.831L165.404 284.048L169.902 282.137C172.256 281.135 173.353 278.417 172.353 276.063L159.13 244.963C158.128 242.61 155.41 241.512 153.056 242.512L148.558 244.423L148.225 243.64C147.834 242.724 146.775 242.295 145.859 242.686L140.466 244.978C139.55 245.368 139.121 246.427 139.511 247.343L139.845 248.126L137.296 249.209L136.962 248.426C136.572 247.51 135.513 247.082 134.597 247.472L129.204 249.764C128.287 250.154 127.859 251.213 128.249 252.13L128.582 252.913L96.8856 266.388C94.5317 267.39 93.4345 270.108 94.4341 272.462L107.657 303.562C108.659 305.915 111.377 307.013 113.731 306.013L145.428 292.537L145.761 293.32C146.152 294.237 147.211 294.665 148.127 294.275L153.52 291.983C154.436 291.592 154.865 290.533 154.475 289.617L154.141 288.834L156.69 287.751L157.024 288.534Z" fill="white"/>
</mask>
<g mask="url(#mask0_610_15461)">
<path opacity="0.14" d="M100.58 287.851L170.224 258.491L157.01 233.78L86.79 264.608L93.1208 281.199L100.58 287.851Z" fill="#F0860E"/>
</g>
<path d="M195.126 264.724L183.086 236.401L159.689 246.347L171.729 274.67L195.126 264.724Z" fill="#F0860E"/>
<path d="M183.715 242.868L181.917 238.639L176.108 241.108L177.906 245.338L183.715 242.868Z" fill="white"/>
<path d="M186.716 249.93L184.918 245.701L179.109 248.17L180.907 252.399L186.716 249.93Z" fill="white"/>
<path d="M189.724 256.994L187.926 252.765L182.117 255.234L183.915 259.464L189.724 256.994Z" fill="white"/>
<path d="M192.712 264.055L190.914 259.825L185.105 262.295L186.903 266.524L192.712 264.055Z" fill="white"/>
<path d="M156.659 287.749L139.813 248.122L137.266 249.205L154.111 288.832L156.659 287.749Z" fill="#F0860E"/>
<path d="M104.284 296.63L97.0752 279.673L85.749 284.487L92.9575 301.445L104.284 296.63Z" fill="#F0860E"/>
<path opacity="0.31" d="M739.784 346.175C725.45 346.256 706.75 336.621 697.29 314.918C685.616 288.141 691.687 259.314 697.551 231.437C697.999 229.309 698.446 227.189 698.882 225.075L699.217 223.457C705.891 191.198 712.793 157.835 712.905 124.251C712.971 103.762 708.89 82.8461 701.407 65.3602C692.458 44.4495 678.868 29.0294 662.101 20.7684C646.376 13.0215 628.719 12.267 614.865 18.7526C602.525 24.5288 594.161 35.1936 590.68 49.5903C584.927 73.3832 589.623 98.2424 594.166 122.285C594.749 125.372 595.328 128.433 595.877 131.462C596.175 133.105 596.48 134.759 596.784 136.43C603.139 171.082 610.338 210.36 587.219 239.274C580.143 248.123 572.22 252.731 562.998 253.364C538.886 255.018 511.356 228.898 489.237 207.908C480.614 199.726 473.169 192.662 466.845 188.073C426.938 159.123 391.226 149.748 357.836 159.492L355.109 153.585L342.612 159.354L340.079 153.865C339.115 151.778 336.642 150.867 334.555 151.831L302.601 166.579L301.98 165.232C301.48 164.152 300.2 163.681 299.119 164.178L267.587 178.734C266.506 179.234 266.035 180.514 266.532 181.595L267.153 182.942L253.304 189.335C251.217 190.299 250.305 192.771 251.269 194.859L255.427 203.865L223.759 218.573C221.212 219.749 220.103 222.764 221.276 225.311C222.452 227.857 225.468 228.967 228.014 227.793L259.699 213.12L263.91 222.241C264.873 224.328 267.346 225.239 269.434 224.276L283.283 217.883L283.904 219.23C284.404 220.31 285.684 220.782 286.765 220.284L318.297 205.728C319.378 205.228 319.849 203.948 319.352 202.867L318.731 201.52L350.685 186.771C352.772 185.808 353.683 183.335 352.719 181.247L350.827 177.147L350.187 175.757L362.685 169.988L359.636 163.381C391.523 154.33 425.843 163.559 464.363 191.503C470.461 195.927 477.813 202.903 486.326 210.981C509.048 232.541 537.325 259.374 563.293 257.591C573.62 256.882 582.785 251.61 590.534 241.919C614.86 211.495 607.473 171.206 600.956 135.663C600.652 133.997 600.347 132.343 600.05 130.706C599.497 127.666 598.919 124.594 598.334 121.497C593.876 97.8949 589.261 73.4927 594.804 50.5851C597.972 37.4808 605.533 27.8013 616.667 22.5867C629.364 16.6415 645.653 17.3817 660.235 24.5669C676.081 32.3757 688.974 47.0556 697.518 67.0262C704.777 83.9933 708.74 104.309 708.673 124.237C708.564 157.395 701.704 190.544 695.074 222.598L694.738 224.216C694.303 226.322 693.858 228.438 693.41 230.561C687.403 259.093 681.194 288.588 693.41 316.608C697.478 325.937 704.046 334.398 711.908 340.432C720.483 347.012 730.131 350.461 739.811 350.406L739.787 346.17L739.784 346.175Z" fill="#FFCF98"/>
<path d="M354.14 152.461C388.743 140.611 425.787 149.52 467.39 179.7C473.714 184.289 481.158 191.353 489.781 199.535C511.901 220.525 539.43 246.648 563.542 244.991C572.765 244.358 580.688 239.748 587.763 230.902C610.883 201.984 603.681 162.71 597.329 128.057C597.022 126.388 596.719 124.732 596.422 123.09C595.872 120.06 595.294 116.999 594.711 113.912C590.17 89.8696 585.471 65.0104 591.224 41.2175C594.706 26.8208 603.069 16.156 615.41 10.3798C629.261 3.89424 646.921 4.6487 662.645 12.3956C679.413 20.6566 693.002 36.0767 701.951 56.9874C709.434 74.4733 713.516 95.3864 713.449 115.878C713.337 149.463 706.435 182.825 699.762 215.084L699.426 216.702C698.988 218.813 698.543 220.934 698.096 223.064C692.231 250.941 686.16 279.768 697.834 306.545C707.294 328.249 725.994 337.883 740.329 337.802L740.353 342.038C730.673 342.093 721.022 338.644 712.45 332.064C704.588 326.03 698.017 317.569 693.952 308.24C681.738 280.22 687.945 250.725 693.952 222.193C694.4 220.07 694.845 217.954 695.28 215.848L695.616 214.23C702.249 182.176 709.106 149.027 709.215 115.869C709.282 95.9433 705.319 75.6252 698.06 58.6582C689.516 38.6899 676.623 24.0077 660.777 16.1989C646.195 9.01363 629.908 8.27344 617.209 14.2187C606.075 19.4309 598.514 29.1128 595.346 42.2171C589.803 65.1246 594.418 89.5268 598.876 113.129C599.461 116.226 600.042 119.296 600.592 122.338C600.889 123.975 601.191 125.629 601.498 127.295C608.017 162.838 615.402 203.127 591.076 233.55C583.327 243.24 574.162 248.514 563.835 249.223C537.867 251.005 509.59 224.173 486.868 202.613C478.354 194.535 471.003 187.557 464.905 183.135C424.5 153.823 388.716 145.102 355.513 156.474L354.14 152.466V152.461Z" fill="#F0860E"/>
<path d="M340.623 145.49L353.26 172.87C354.224 174.957 353.313 177.43 351.225 178.394L269.977 215.898C267.89 216.862 265.417 215.95 264.453 213.863L251.815 186.483C250.851 184.396 251.763 181.923 253.85 180.959L335.099 143.455C337.186 142.491 339.659 143.403 340.623 145.49Z" fill="#FFB881"/>
<mask id="mask1_610_15461" style="mask-type:luminance" maskUnits="userSpaceOnUse" x="251" y="143" width="103" height="74">
<path d="M340.623 145.49L353.26 172.87C354.224 174.957 353.313 177.43 351.225 178.394L269.977 215.898C267.89 216.862 265.417 215.95 264.453 213.863L251.815 186.483C250.851 184.396 251.763 181.923 253.85 180.959L335.099 143.455C337.186 142.491 339.659 143.403 340.623 145.49Z" fill="white"/>
</mask>
<g mask="url(#mask1_610_15461)">
<path opacity="0.14" d="M348.446 159.175L252.353 202.425L244.549 178.437L278.654 153.004L343.971 135.085L348.446 159.175Z" fill="#F0860E"/>
</g>
<path d="M302.524 156.859L319.896 194.492C320.395 195.573 319.922 196.853 318.841 197.353L287.309 211.909C286.228 212.409 284.948 211.935 284.448 210.855L267.076 173.222C266.576 172.141 267.05 170.861 268.13 170.361L299.663 155.805C300.744 155.305 302.024 155.779 302.524 156.859Z" fill="#F0860E"/>
<path d="M316.006 192.885C316.366 193.661 316.025 194.582 315.249 194.942L287.846 207.592C287.07 207.951 286.149 207.611 285.79 206.835C285.43 206.059 285.771 205.138 286.547 204.778L313.95 192.129C314.726 191.769 315.647 192.11 316.006 192.885Z" fill="#FFB881"/>
<path d="M313.05 186.481C313.41 187.257 313.069 188.178 312.293 188.537L284.89 201.187C284.114 201.546 283.193 201.206 282.834 200.43C282.474 199.654 282.815 198.733 283.591 198.374L310.994 185.724C311.77 185.365 312.691 185.705 313.05 186.481Z" fill="#FFB881"/>
<path d="M310.094 180.074C310.454 180.85 310.113 181.771 309.337 182.13L281.934 194.78C281.158 195.139 280.237 194.799 279.878 194.023C279.518 193.247 279.859 192.326 280.634 191.967L308.038 179.317C308.814 178.958 309.735 179.298 310.094 180.074Z" fill="#FFB881"/>
<path d="M307.138 173.669C307.498 174.445 307.157 175.366 306.381 175.726L278.978 188.375C278.202 188.735 277.281 188.394 276.922 187.618C276.562 186.843 276.903 185.922 277.678 185.562L305.082 172.912C305.858 172.553 306.779 172.893 307.138 173.669Z" fill="#FFB881"/>
<path d="M304.18 167.265C304.54 168.04 304.199 168.962 303.423 169.321L276.02 181.971C275.244 182.33 274.323 181.99 273.964 181.214C273.604 180.438 273.945 179.517 274.72 179.158L302.124 166.508C302.9 166.148 303.821 166.489 304.18 167.265Z" fill="#FFB881"/>
<path d="M301.224 160.86C301.583 161.636 301.243 162.557 300.467 162.916L273.064 175.566C272.288 175.926 271.367 175.585 271.008 174.809C270.648 174.033 270.989 173.112 271.764 172.753L299.168 160.103C299.944 159.744 300.865 160.084 301.224 160.86Z" fill="#FFB881"/>
<path d="M256.006 195.565L260.262 204.783L228.56 219.418C226.014 220.594 222.998 219.482 221.822 216.935C220.647 214.389 221.758 211.373 224.305 210.198L256.006 195.563V195.565Z" fill="#F0860E"/>
<path d="M343.13 150.987L350.701 167.387L363.197 161.619L355.626 145.218L343.13 150.987Z" fill="#F0860E"/>
</g>
<defs>
<clipPath id="clip0_610_15461">
<rect width="1176.9" height="401" fill="white" transform="translate(-351.55 -50.5)"/>
</clipPath>
</defs>
</svg>
