<svg width="1440" height="551" viewBox="0 0 1440 551" fill="none" xmlns="http://www.w3.org/2000/svg">
<g clip-path="url(#clip0_610_15401)">
<path opacity="0.31" d="M393.994 416.811L440.79 396.914L416.709 340.27L369.913 360.166L368.733 357.387C366.729 352.679 361.293 350.485 356.58 352.484L347.584 356.306L346.918 354.74C346.137 352.907 344.019 352.051 342.186 352.831L331.4 357.415C329.567 358.196 328.711 360.314 329.491 362.147L330.158 363.713L325.06 365.878L324.393 364.312C323.613 362.48 321.494 361.623 319.662 362.404L308.876 366.988C307.043 367.768 306.186 369.886 306.967 371.719L307.633 373.285L244.24 400.236C239.532 402.24 237.337 407.676 239.337 412.384L245.272 426.35L224.228 435.298L227.927 443.995C175.343 466.629 116.2 491.5 58.8371 493.137C34.2802 493.837 -13.3723 484.75 -56.598 415.978C-68.4075 397.195 -77.9847 377.093 -85.7958 359.909C-87.1525 356.925 -88.4662 353.736 -89.8561 350.361C-96.5487 334.115 -104.136 315.703 -121.848 306.769C-147.152 294.007 -169.748 308.354 -187.903 319.878C-190.112 321.282 -192.287 322.662 -194.434 323.976C-200.227 327.518 -206.186 331.354 -211.955 335.072C-242.319 354.63 -273.721 374.856 -307.793 371.486C-338.529 368.444 -365.965 348.124 -381.183 317.112C-411.628 255.07 -406.573 192.319 -365.732 125.269C-329.732 66.169 -272.674 13.8327 -222.327 -32.3441C-214.711 -39.3318 -207.519 -45.9292 -200.469 -52.4837C-186.142 -65.8022 -169.996 -81.6769 -159.676 -101.512C-147.928 -124.089 -146.043 -148.331 -154.507 -168.023C-161.742 -184.869 -176.931 -199.24 -199.636 -210.735C-236.355 -229.323 -275.468 -237.163 -315.89 -234.026C-350.943 -231.308 -388.014 -220.212 -426.075 -201.048C-494.124 -166.767 -554.914 -113.245 -610.468 -60.5139L-650 -22.9907L-637.7 -10.0292L-598.168 -47.5524C-543.604 -99.346 -484.018 -151.849 -418.04 -185.069C-382.064 -203.181 -347.23 -213.653 -314.505 -216.195C-277.391 -219.075 -241.458 -211.868 -207.705 -194.78C-188.836 -185.226 -176.46 -173.845 -170.919 -160.955C-164.674 -146.427 -166.397 -127.287 -175.522 -109.747C-184.528 -92.4393 -199.398 -77.8641 -212.631 -65.5595C-219.638 -59.0478 -226.806 -52.4695 -234.403 -45.5056C-285.621 1.47099 -343.674 54.7165 -380.988 115.978C-401.704 149.988 -413.608 182.347 -417.378 214.905C-421.667 251.948 -414.884 288.98 -397.215 324.985C-393.788 331.973 -389.823 338.494 -385.391 344.511C-366.598 370.015 -339.433 386.318 -309.545 389.269C-269.275 393.253 -233.68 370.324 -202.273 350.099C-196.333 346.272 -190.721 342.659 -185.109 339.227C-182.876 337.861 -180.611 336.424 -178.316 334.967C-158.876 322.624 -145.001 315.103 -129.888 322.724C-118.112 328.66 -112.143 343.154 -106.369 357.168C-104.979 360.542 -103.541 364.032 -102.051 367.306C-93.9926 385.033 -84.087 405.805 -71.7158 425.488C-51.1335 458.237 -6.73688 512.887 59.3559 510.997C120.065 509.264 180.888 483.693 234.929 460.436L238.661 469.214L259.705 460.265L265.793 474.588C267.797 479.295 273.233 481.49 277.94 479.49L341.334 452.539L342.001 454.105C342.781 455.938 344.899 456.795 346.732 456.014L357.518 451.43C359.351 450.649 360.208 448.531 359.427 446.699L358.761 445.133L363.859 442.967L364.525 444.533C365.306 446.365 367.424 447.222 369.256 446.442L380.043 441.858C381.875 441.077 382.732 438.959 381.951 437.126L381.285 435.56L390.281 431.738C394.989 429.734 397.183 424.298 395.184 419.59L394.004 416.811H393.994Z" fill="#FFCF98"/>
<path d="M-384.968 328.198C-389.399 322.182 -393.364 315.66 -396.791 308.673C-414.461 272.668 -421.244 235.635 -416.955 198.593C-413.185 166.034 -401.28 133.676 -380.565 99.6653C-343.251 38.4039 -285.198 -14.8416 -233.98 -61.8181C-226.388 -68.782 -219.214 -75.3604 -212.208 -81.872C-198.975 -94.1767 -184.105 -108.752 -175.099 -126.059C-165.974 -143.6 -164.251 -162.74 -170.496 -177.267C-176.032 -190.158 -188.412 -201.539 -207.281 -211.092C-241.034 -228.181 -276.968 -235.387 -314.081 -232.507C-346.807 -229.97 -381.64 -219.498 -417.616 -201.382C-483.59 -168.171 -543.176 -115.663 -597.74 -63.8697L-637.272 -26.3465L-649.572 -39.308L-610.04 -76.8312C-554.486 -129.567 -493.696 -183.089 -425.647 -217.347C-387.586 -236.511 -350.515 -247.606 -315.462 -250.329C-275.035 -253.466 -235.922 -245.631 -199.208 -227.038C-176.503 -215.543 -161.314 -201.177 -154.078 -184.327C-145.615 -164.639 -147.5 -140.396 -159.248 -117.815C-169.568 -97.9799 -185.718 -82.11 -200.041 -68.7868C-207.091 -62.2322 -214.283 -55.6349 -221.899 -48.6472C-272.241 -2.47031 -329.304 49.866 -365.304 108.966C-406.145 176.016 -411.2 238.767 -380.755 300.809C-365.537 331.821 -338.1 352.146 -307.365 355.183C-273.293 358.553 -241.891 338.327 -211.527 318.769C-205.763 315.056 -199.798 311.214 -194.005 307.673C-191.859 306.359 -189.679 304.979 -187.475 303.575C-169.32 292.046 -146.724 277.704 -121.42 290.466C-103.708 299.4 -96.1205 317.812 -89.4279 334.058C-88.038 337.433 -86.7243 340.627 -85.3677 343.606C-77.5565 360.79 -67.9745 380.891 -56.1697 399.674C-12.9489 468.447 34.7084 477.534 59.2653 476.834C118.17 475.154 178.951 448.974 232.573 425.874L240.336 422.532L247.39 438.949L239.636 442.286C184.539 466.02 122.088 492.918 59.7698 494.699C-6.31818 496.588 -50.7195 441.939 -71.3018 409.19C-83.6731 389.507 -93.5787 368.734 -101.637 351.008C-103.127 347.733 -104.565 344.244 -105.955 340.869C-111.729 326.856 -117.698 312.362 -129.474 306.426C-144.587 298.8 -158.462 306.321 -177.902 318.669C-180.197 320.125 -182.458 321.563 -184.695 322.929C-190.307 326.361 -195.919 329.974 -201.859 333.801C-233.266 354.026 -268.861 376.955 -309.131 372.971C-339.019 370.015 -366.185 353.712 -384.977 328.212L-384.968 328.198Z" fill="#F0860E"/>
<path d="M367.148 427.068C367.928 428.901 370.046 429.758 371.879 428.977L382.665 424.393C384.498 423.613 385.355 421.494 384.574 419.662L383.908 418.096L392.904 414.273C397.612 412.27 399.806 406.834 397.807 402.126L371.36 339.927C369.356 335.219 363.92 333.025 359.213 335.024L350.216 338.846L349.55 337.28C348.769 335.448 346.651 334.591 344.818 335.372L334.032 339.955C332.2 340.736 331.343 342.854 332.123 344.687L332.79 346.253L327.692 348.419L327.026 346.853C326.245 345.02 324.127 344.163 322.294 344.944L311.508 349.528C309.675 350.308 308.818 352.427 309.599 354.259L310.265 355.825L246.872 382.776C242.164 384.78 239.97 390.216 241.969 394.924L268.415 457.123C270.419 461.831 275.855 464.025 280.563 462.026L343.957 435.075L344.623 436.641C345.404 438.473 347.522 439.33 349.355 438.55L360.141 433.966C361.973 433.185 362.83 431.067 362.05 429.234L361.383 427.668L366.481 425.502L367.148 427.068Z" fill="#FFB881"/>
<mask id="mask0_610_15401" style="mask-type:luminance" maskUnits="userSpaceOnUse" x="241" y="334" width="158" height="129">
<path d="M367.148 427.068C367.928 428.901 370.046 429.758 371.879 428.977L382.665 424.393C384.498 423.613 385.355 421.494 384.574 419.662L383.908 418.096L392.904 414.273C397.612 412.27 399.806 406.834 397.807 402.126L371.36 339.927C369.356 335.219 363.92 333.025 359.213 335.024L350.216 338.846L349.55 337.28C348.769 335.448 346.651 334.591 344.818 335.372L334.032 339.955C332.2 340.736 331.343 342.854 332.123 344.687L332.79 346.253L327.692 348.419L327.026 346.853C326.245 345.02 324.127 344.163 322.294 344.944L311.508 349.528C309.675 350.308 308.818 352.427 309.599 354.259L310.265 355.825L246.872 382.776C242.164 384.78 239.97 390.216 241.969 394.924L268.415 457.123C270.419 461.831 275.855 464.025 280.563 462.026L343.957 435.075L344.623 436.641C345.404 438.473 347.522 439.33 349.355 438.55L360.141 433.966C361.973 433.185 362.83 431.067 362.05 429.234L361.383 427.668L366.481 425.502L367.148 427.068Z" fill="white"/>
</mask>
<g mask="url(#mask0_610_15401)">
<path opacity="0.14" d="M254.259 425.702L393.547 366.983L367.119 317.56L226.68 379.216L239.341 412.398L254.259 425.702Z" fill="#F0860E"/>
</g>
<path d="M443.35 379.448L419.27 322.802L372.476 342.694L396.556 399.34L443.35 379.448Z" fill="#F0860E"/>
<path d="M420.528 335.737L416.932 327.278L405.315 332.216L408.911 340.675L420.528 335.737Z" fill="white"/>
<path d="M426.531 349.86L422.936 341.401L411.318 346.34L414.914 354.799L426.531 349.86Z" fill="white"/>
<path d="M432.544 363.989L428.948 355.53L417.331 360.468L420.927 368.927L432.544 363.989Z" fill="white"/>
<path d="M438.522 378.11L434.926 369.651L423.309 374.589L426.905 383.048L438.522 378.11Z" fill="white"/>
<path d="M366.418 425.498L332.727 346.244L327.632 348.41L361.323 427.664L366.418 425.498Z" fill="#F0860E"/>
<path d="M261.667 443.26L247.25 409.345L224.598 418.975L239.015 452.889L261.667 443.26Z" fill="#F0860E"/>
<path opacity="0.31" d="M2012.67 542.349C1984 542.511 1946.6 523.243 1927.68 479.836C1904.33 426.281 1916.47 368.628 1928.2 312.874C1929.1 308.619 1929.99 304.378 1930.86 300.151L1931.53 296.914C1944.88 232.397 1958.69 165.671 1958.91 98.5022C1959.04 57.5233 1950.88 15.6923 1935.91 -19.2795C1918.02 -61.1009 1890.84 -91.941 1857.3 -108.463C1825.85 -123.957 1790.54 -125.466 1762.83 -112.495C1738.15 -100.942 1721.42 -79.6126 1714.46 -50.8193C1702.95 -3.23347 1712.35 46.4848 1721.43 94.5705C1722.6 100.744 1723.75 106.866 1724.85 112.925C1725.45 116.209 1726.06 119.518 1726.67 122.859C1739.38 192.165 1753.78 270.719 1707.54 328.549C1693.39 346.247 1677.54 355.462 1659.09 356.728C1610.87 360.036 1555.81 307.795 1511.57 265.817C1494.33 249.452 1479.44 235.324 1466.79 226.147C1386.97 168.246 1315.55 149.496 1248.77 168.984L1243.32 157.169L1218.32 168.708L1213.26 157.731C1211.33 153.557 1206.38 151.733 1202.21 153.661L1138.3 183.159L1137.06 180.465C1136.06 178.304 1133.5 177.361 1131.34 178.356L1068.27 207.468C1066.11 208.468 1065.17 211.029 1066.16 213.19L1067.41 215.884L1039.71 228.67C1035.53 230.597 1033.71 235.543 1035.64 239.718L1043.95 257.729L980.617 287.146C975.524 289.498 973.306 295.529 975.653 300.622C978.004 305.715 984.035 307.933 989.128 305.587L1052.5 276.241L1060.92 294.481C1062.85 298.656 1067.79 300.479 1071.97 298.551L1099.67 285.766L1100.91 288.46C1101.91 290.621 1104.47 291.564 1106.63 290.569L1169.69 261.456C1171.86 260.457 1172.8 257.896 1171.8 255.735L1170.56 253.041L1234.47 223.543C1238.64 221.615 1240.47 216.67 1238.54 212.495L1234.75 204.294L1233.47 201.514L1258.47 189.975L1252.37 176.762C1316.15 158.659 1384.79 177.119 1461.83 233.006C1474.02 241.855 1488.72 255.806 1505.75 271.962C1551.2 315.083 1607.75 368.747 1659.69 365.182C1680.34 363.763 1698.67 353.22 1714.17 333.837C1762.82 272.99 1748.05 192.413 1735.01 121.327C1734.4 117.994 1733.79 114.686 1733.2 111.411C1732.09 105.333 1730.94 99.1877 1729.77 92.9949C1720.85 45.7899 1711.62 -3.01451 1722.71 -48.8296C1729.04 -75.0382 1744.17 -94.3972 1766.43 -104.826C1791.83 -116.717 1824.41 -115.237 1853.57 -100.866C1885.26 -85.2485 1911.05 -55.8887 1928.14 -15.9475C1942.65 17.9866 1950.58 58.6181 1950.45 98.4737C1950.23 164.79 1936.51 231.088 1923.25 295.195L1922.58 298.432C1921.7 302.645 1920.81 306.877 1919.92 311.122C1907.91 368.185 1895.49 427.176 1919.92 483.216C1928.05 501.875 1941.19 518.797 1956.91 530.864C1974.06 544.025 1993.36 550.922 2012.72 550.813L2012.67 542.34L2012.67 542.349Z" fill="#FFCF98"/>
<path d="M1241.38 154.923C1310.59 131.223 1384.68 149.039 1467.88 209.401C1480.53 218.578 1495.42 232.706 1512.66 249.071C1556.9 291.049 1611.96 343.295 1660.19 339.982C1678.63 338.716 1694.48 329.496 1708.63 311.803C1754.87 253.969 1740.46 175.419 1727.76 106.113C1727.14 102.777 1726.54 99.4637 1725.94 96.1793C1724.85 90.1198 1723.69 83.9985 1722.52 77.8247C1713.44 29.7391 1704.04 -19.9792 1715.55 -67.565C1722.51 -96.3583 1739.24 -117.688 1763.92 -129.24C1791.62 -142.212 1826.94 -140.703 1858.39 -125.209C1891.93 -108.687 1919.11 -77.8467 1937 -36.0252C1951.97 -1.05341 1960.13 40.7728 1960 81.7565C1959.78 148.925 1945.97 215.651 1932.62 280.168L1931.95 283.405C1931.08 287.627 1930.19 291.868 1929.29 296.128C1917.56 351.882 1905.42 409.536 1928.77 463.091C1947.69 506.497 1985.09 525.766 2013.76 525.604L2013.81 534.077C1994.45 534.186 1975.15 527.289 1958 514.127C1942.28 502.061 1929.14 485.139 1921.01 466.48C1896.58 410.44 1908.99 351.449 1921.01 294.386C1921.9 290.14 1922.79 285.909 1923.66 281.696L1924.33 278.459C1937.6 214.351 1951.31 148.054 1951.53 81.7375C1951.66 41.8867 1943.74 1.25044 1929.22 -32.6837C1912.13 -72.6202 1886.35 -101.985 1854.66 -117.602C1825.49 -131.973 1792.92 -133.453 1767.52 -121.563C1745.25 -111.138 1730.13 -91.7745 1723.79 -65.5658C1712.71 -19.7507 1721.94 29.0537 1730.85 76.2587C1732.02 82.4515 1733.18 88.5919 1734.28 94.6752C1734.88 97.9501 1735.48 101.258 1736.1 104.59C1749.14 175.676 1763.91 256.254 1715.25 317.101C1699.76 336.479 1681.42 347.027 1660.77 348.446C1608.83 352.011 1552.28 298.347 1506.84 255.226C1489.81 239.07 1475.11 225.114 1462.91 216.27C1382.1 157.645 1310.53 140.205 1244.13 162.948L1241.38 154.932V154.923Z" fill="#F0860E"/>
<path d="M1214.35 140.981L1239.62 195.74C1241.55 199.914 1239.73 204.86 1235.55 206.788L1073.06 281.796C1068.88 283.724 1063.94 281.901 1062.01 277.726L1036.73 222.967C1034.81 218.792 1036.63 213.847 1040.8 211.919L1203.3 136.911C1207.47 134.983 1212.42 136.806 1214.35 140.981Z" fill="#FFB881"/>
<mask id="mask1_610_15401" style="mask-type:luminance" maskUnits="userSpaceOnUse" x="1035" y="136" width="206" height="147">
<path d="M1214.35 140.981L1239.62 195.74C1241.55 199.914 1239.73 204.86 1235.55 206.788L1073.06 281.796C1068.88 283.724 1063.94 281.901 1062.01 277.726L1036.73 222.967C1034.81 218.792 1036.63 213.847 1040.8 211.919L1203.3 136.911C1207.47 134.983 1212.42 136.806 1214.35 140.981Z" fill="white"/>
</mask>
<g mask="url(#mask1_610_15401)">
<path opacity="0.14" d="M1229.99 168.351L1037.81 254.85L1022.2 206.873L1090.41 156.008L1221.05 120.17L1229.99 168.351Z" fill="#F0860E"/>
</g>
<path d="M1138.15 163.719L1172.89 238.984C1173.89 241.146 1172.95 243.706 1170.78 244.706L1107.72 273.818C1105.56 274.818 1103 273.871 1102 271.71L1067.25 196.444C1066.25 194.283 1067.2 191.722 1069.36 190.723L1132.43 161.61C1134.59 160.611 1137.15 161.558 1138.15 163.719Z" fill="#F0860E"/>
<path d="M1165.12 235.771C1165.83 237.323 1165.15 239.165 1163.6 239.884L1108.8 265.184C1107.24 265.902 1105.4 265.222 1104.68 263.67C1103.96 262.118 1104.64 260.276 1106.2 259.557L1161 234.258C1162.55 233.539 1164.4 234.22 1165.12 235.771Z" fill="#FFB881"/>
<path d="M1159.2 222.962C1159.92 224.514 1159.24 226.356 1157.69 227.075L1102.88 252.374C1101.33 253.093 1099.49 252.412 1098.77 250.86C1098.05 249.309 1098.73 247.467 1100.28 246.748L1155.09 221.448C1156.64 220.73 1158.49 221.41 1159.2 222.962Z" fill="#FFB881"/>
<path d="M1153.29 210.148C1154.01 211.7 1153.33 213.542 1151.78 214.261L1096.97 239.56C1095.42 240.279 1093.58 239.598 1092.86 238.047C1092.14 236.495 1092.82 234.653 1094.37 233.934L1149.18 208.635C1150.73 207.916 1152.57 208.596 1153.29 210.148Z" fill="#FFB881"/>
<path d="M1147.38 197.339C1148.1 198.891 1147.42 200.733 1145.87 201.452L1091.06 226.751C1089.51 227.47 1087.67 226.789 1086.95 225.237C1086.23 223.686 1086.91 221.844 1088.46 221.125L1143.27 195.825C1144.82 195.107 1146.66 195.787 1147.38 197.339Z" fill="#FFB881"/>
<path d="M1141.46 184.53C1142.18 186.082 1141.5 187.924 1139.95 188.642L1085.14 213.942C1083.59 214.661 1081.75 213.98 1081.03 212.428C1080.31 210.877 1080.99 209.034 1082.54 208.316L1137.35 183.016C1138.9 182.297 1140.74 182.978 1141.46 184.53Z" fill="#FFB881"/>
<path d="M1135.55 171.721C1136.27 173.272 1135.59 175.115 1134.04 175.833L1079.23 201.133C1077.68 201.851 1075.84 201.171 1075.12 199.619C1074.4 198.067 1075.08 196.225 1076.63 195.506L1131.44 170.207C1132.99 169.488 1134.83 170.169 1135.55 171.721Z" fill="#FFB881"/>
<path d="M1045.12 241.131L1053.63 259.567L990.223 288.836C985.13 291.187 979.099 288.965 976.747 283.871C974.396 278.778 976.619 272.747 981.712 270.396L1045.12 241.126V241.131Z" fill="#F0860E"/>
<path d="M1219.36 151.973L1234.5 184.775L1259.5 173.238L1244.35 140.436L1219.36 151.973Z" fill="#F0860E"/>
</g>
<defs>
<clipPath id="clip0_610_15401">
<rect width="2353.8" height="802" fill="white" transform="translate(-510 -251)"/>
</clipPath>
</defs>
</svg>
