<svg width="271" height="248" viewBox="0 0 271 248" fill="none" xmlns="http://www.w3.org/2000/svg">
<g clip-path="url(#clip0_612_12685)">
<path d="M39.6869 114.399C-13.229 144.95 -13.229 194.482 39.6869 225.033C92.6027 255.584 178.397 255.584 231.313 225.033C284.229 194.482 284.229 144.95 231.313 114.399C178.397 83.8479 92.6027 83.8479 39.6869 114.399Z" fill="#F5F5F5"/>
<path d="M152.701 229.46C150.749 229.46 148.96 229.097 147.529 228.405L46.8112 179.775C45.9492 179.365 45.2455 178.825 44.7823 178.215C44.02 177.213 43.9496 175.846 44.6005 174.773C45.011 174.105 45.6912 173.483 46.5708 172.979L119.312 130.982C120.702 130.173 122.455 129.739 124.379 129.739C126.59 129.739 128.742 130.348 130.284 131.404L213.885 188.858C215.404 189.891 216.237 191.321 216.161 192.77C216.114 194.165 215.199 195.473 213.592 196.405L158.894 227.988C157.269 228.926 155.012 229.46 152.696 229.46H152.701Z" fill="#E0E0E0"/>
<path d="M129.838 31.929L127.427 33.3247L123.469 17.1872C122.338 12.6251 117.946 6.76706 113.858 4.4215L111.654 3.14317C110.534 2.49228 108.563 2.49228 107.443 3.14317L100.717 7.00162C100.078 7.37691 99.269 7.14822 98.8937 6.50905C98.5302 5.88161 98.7471 5.06067 99.3863 4.69711L106.112 0.826935C108.041 -0.281342 111.061 -0.281342 112.979 0.826935L115.195 2.10526C119.886 4.81438 124.759 11.2881 126.061 16.5422L129.838 31.9232V31.929Z" fill="#263238"/>
<path d="M50.6928 39.8921L46.3594 32.3863L100.354 1.19626C100.917 0.750601 101.767 0.762329 102.706 1.30181C104.4 2.28108 105.772 4.65596 105.772 6.60863C105.772 7.69346 105.356 8.43817 104.693 8.70205L50.6987 39.8921H50.6928Z" fill="#F0860E"/>
<path opacity="0.1" d="M48.1414 35.4765L104.464 2.96706C104.048 2.3924 103.561 1.88811 103.027 1.51282L47.1504 33.7701L48.1355 35.4824L48.1414 35.4765Z" fill="white"/>
<path d="M46.3536 32.3863C47.4912 31.7295 49.3853 32.873 50.5815 34.9488C51.7777 37.0188 51.8246 39.2353 50.687 39.8921C49.5494 40.5488 47.6554 39.4054 46.4592 37.3295C45.2629 35.2596 45.216 33.043 46.3536 32.3863Z" fill="#F0860E"/>
<path opacity="0.3" d="M46.3536 32.3863C47.4912 31.7295 49.3853 32.873 50.5815 34.9488C51.7777 37.0188 51.8246 39.2353 50.687 39.8921C49.5494 40.5488 47.6554 39.4054 46.4592 37.3295C45.2629 35.2596 45.216 33.043 46.3536 32.3863Z" fill="black"/>
<path d="M60.7137 72.3313L58.3036 73.7152L54.3455 57.5777C53.2137 53.0156 48.81 47.1693 44.7404 44.8238L42.5239 43.5337C41.3745 42.8711 40.7119 41.8684 40.7119 40.7835C40.7119 39.6987 41.3745 38.696 42.5239 38.0334L47.3264 35.2949C47.6782 35.0897 48.2646 35.4415 48.6282 36.0866C49.0035 36.7257 49.0093 37.4059 48.6575 37.6112H48.6458L43.855 40.3496C43.4738 40.5607 43.3859 40.7542 43.3741 40.7894C43.3859 40.8304 43.4679 41.0122 43.855 41.2351L46.0715 42.5134C50.7626 45.2225 55.6238 51.6962 56.9256 56.9386L60.7137 72.3313Z" fill="#263238"/>
<path d="M133.268 198.381C133.303 198.399 133.332 198.417 133.373 198.428C129.714 203.178 123.751 204.538 122.408 203.911C121.329 203.413 120.69 202.128 121.511 201.36C121.886 201.008 122.543 200.645 123.153 200.135C124.947 198.645 125.539 196.053 125.703 194.03L133.262 198.381H133.268Z" fill="#E0E0E0"/>
<g opacity="0.2">
<path d="M133.267 198.381C133.302 198.399 133.331 198.417 133.372 198.428C129.713 203.178 123.75 204.538 122.407 203.911C121.328 203.413 120.689 202.128 121.51 201.36C121.885 201.008 122.542 200.645 123.152 200.135C124.946 198.645 125.538 196.053 125.702 194.03L133.261 198.381H133.267Z" fill="black"/>
</g>
<path d="M129.503 205.717C129.527 201.894 126.87 197.226 123.575 195.291C121.845 194.277 120.285 194.224 119.183 194.951L115.125 197.232L123.634 211.904L127.656 209.623V209.611C128.776 209.007 129.492 207.664 129.503 205.711V205.717Z" fill="#37474F"/>
<path d="M119.358 197.684C122.66 199.619 125.316 204.286 125.287 208.11C125.263 211.933 122.566 213.469 119.27 211.534C115.969 209.599 113.313 204.931 113.342 201.108C113.365 197.285 116.063 195.749 119.358 197.684Z" fill="#455A64"/>
<path d="M117.288 203.424C117.3 201.929 118.209 201.249 119.329 201.9C120.443 202.557 121.346 204.298 121.334 205.793C121.323 207.289 120.414 207.969 119.294 207.318C118.174 206.661 117.276 204.92 117.288 203.424Z" fill="#263238"/>
<path d="M122.883 192.406C122.883 192.406 123.276 199.466 120.045 202.164C119.435 202.674 118.778 203.037 118.397 203.389C117.576 204.157 118.221 205.442 119.3 205.94C120.866 206.667 128.899 204.603 132.031 197.672L122.883 192.406Z" fill="#F5F5F5"/>
<path d="M119.458 203.847C119.798 204.017 120.091 204.462 120.109 204.843C120.132 205.225 119.874 205.395 119.534 205.219C119.194 205.049 118.901 204.603 118.883 204.222C118.86 203.841 119.118 203.671 119.458 203.847Z" fill="#263238"/>
<path d="M92.2102 178.444C92.2454 178.462 92.3099 178.497 92.3099 178.497C88.6509 183.247 82.6931 184.596 81.3503 183.974C80.2713 183.476 79.6322 182.191 80.4531 181.423C80.8284 181.071 81.4852 180.708 82.095 180.198C83.8894 178.708 84.4816 176.116 84.6458 174.093L92.2044 178.444H92.2102Z" fill="#E0E0E0"/>
<g opacity="0.2">
<path d="M92.2083 178.444C92.2435 178.462 92.308 178.497 92.308 178.497C88.6489 183.247 82.6912 184.595 81.3484 183.974C80.2694 183.475 79.6302 182.191 80.4512 181.423C80.8265 181.071 81.4832 180.708 82.0931 180.198C83.8874 178.708 84.4797 176.116 84.6439 174.093L92.2024 178.444H92.2083Z" fill="black"/>
</g>
<path d="M88.4447 185.786C88.4681 181.963 85.8118 177.295 82.5163 175.36C80.7864 174.345 79.2266 174.293 78.1242 175.02L74.0664 177.301L82.5749 191.972L86.5976 189.691V189.68C87.7176 189.076 88.433 187.733 88.4447 185.78V185.786Z" fill="#37474F"/>
<path d="M78.2998 177.752C81.6012 179.687 84.2575 184.355 84.2282 188.178C84.2047 192.002 81.5074 193.538 78.2118 191.603C74.9105 189.668 72.2541 185 72.2834 181.177C72.3069 177.354 75.0043 175.817 78.2998 177.752Z" fill="#455A64"/>
<path d="M76.2364 183.493C76.2482 181.998 77.1571 181.318 78.2771 181.969C79.3912 182.625 80.2943 184.367 80.2825 185.862C80.2708 187.357 79.3619 188.038 78.2419 187.387C77.1219 186.73 76.2247 184.988 76.2364 183.493Z" fill="#263238"/>
<path d="M81.8243 172.475C81.8243 172.475 82.2172 179.535 78.9862 182.232C78.3764 182.743 77.7196 183.106 77.3385 183.458C76.5175 184.226 77.1625 185.51 78.2415 186.009C79.8072 186.736 87.8407 184.672 90.972 177.741L81.8243 172.475Z" fill="#F5F5F5"/>
<path d="M78.3994 183.915C78.7395 184.085 79.0327 184.531 79.0503 184.912C79.0737 185.293 78.8157 185.463 78.4756 185.287C78.1355 185.117 77.8423 184.672 77.8247 184.291C77.8013 183.909 78.0593 183.739 78.3994 183.915Z" fill="#263238"/>
<path d="M191.966 164.699C188.301 169.431 182.349 170.798 181.007 170.17C179.928 169.672 179.288 168.388 180.109 167.62C180.485 167.268 181.141 166.904 181.751 166.394C183.546 164.905 184.138 162.313 184.302 160.29L191.409 164.377L191.861 164.641L191.96 164.699H191.966Z" fill="#E0E0E0"/>
<g opacity="0.2">
<path d="M191.966 164.699C188.301 169.431 182.349 170.798 181.007 170.17C179.928 169.672 179.288 168.388 180.109 167.62C180.485 167.268 181.141 166.904 181.751 166.394C183.546 164.905 184.138 162.313 184.302 160.29L191.409 164.377L191.861 164.641L191.96 164.699H191.966Z" fill="black"/>
</g>
<path d="M188.102 171.976C188.125 168.153 185.469 163.486 182.174 161.55C180.444 160.536 178.884 160.483 177.781 161.21L173.724 163.491L182.232 178.163L186.255 175.882V175.87C187.375 175.266 188.09 173.923 188.102 171.971V171.976Z" fill="#37474F"/>
<path d="M177.957 163.943C181.258 165.878 183.915 170.546 183.885 174.369C183.862 178.192 181.165 179.729 177.869 177.793C174.568 175.858 171.911 171.191 171.941 167.367C171.964 163.544 174.662 162.008 177.957 163.943Z" fill="#455A64"/>
<path d="M175.887 169.684C175.899 168.188 176.807 167.508 177.927 168.159C179.042 168.816 179.945 170.557 179.933 172.053C179.921 173.548 179.012 174.228 177.892 173.571C176.772 172.915 175.875 171.173 175.887 169.678V169.684Z" fill="#263238"/>
<path d="M181.482 158.665C181.482 158.665 181.874 165.726 178.643 168.423C178.034 168.933 177.377 169.297 176.996 169.648C176.175 170.417 176.82 171.701 177.899 172.199C179.464 172.926 187.498 170.862 190.629 163.931L181.482 158.665Z" fill="#F5F5F5"/>
<path d="M178.051 170.106C178.391 170.276 178.684 170.722 178.702 171.103C178.725 171.484 178.467 171.654 178.127 171.478C177.787 171.308 177.494 170.862 177.476 170.481C177.453 170.1 177.711 169.93 178.051 170.106Z" fill="#263238"/>
<path d="M156.607 141.273C156.642 141.291 156.706 141.326 156.706 141.326C153.047 146.076 147.09 147.424 145.753 146.803C144.674 146.304 144.035 145.02 144.855 144.252C145.231 143.9 145.888 143.537 146.497 143.027C148.292 141.537 148.884 138.945 149.048 136.922L156.607 141.273Z" fill="#E0E0E0"/>
<g opacity="0.2">
<path d="M156.608 141.273C156.643 141.291 156.707 141.326 156.707 141.326C153.048 146.076 147.091 147.424 145.754 146.803C144.675 146.304 144.036 145.02 144.856 144.252C145.232 143.9 145.888 143.536 146.498 143.026C148.293 141.537 148.885 138.945 149.049 136.922L156.608 141.273Z" fill="black"/>
</g>
<path d="M152.842 148.609C152.866 144.786 150.209 140.118 146.914 138.183C145.184 137.168 143.624 137.116 142.522 137.843L138.464 140.124L146.972 154.795L150.995 152.514V152.503C152.121 151.899 152.83 150.556 152.842 148.603V148.609Z" fill="#37474F"/>
<path d="M142.697 140.575C145.999 142.51 148.655 147.178 148.626 151.001C148.602 154.825 145.905 156.361 142.609 154.426C139.308 152.491 136.652 147.823 136.681 144C136.704 140.177 139.402 138.64 142.697 140.575Z" fill="#455A64"/>
<path d="M140.634 146.316C140.646 144.821 141.555 144.141 142.675 144.792C143.789 145.448 144.692 147.19 144.68 148.685C144.668 150.18 143.759 150.861 142.639 150.204C141.519 149.547 140.622 147.806 140.634 146.31V146.316Z" fill="#263238"/>
<path d="M146.227 135.298C146.227 135.298 146.62 142.358 143.389 145.055C142.779 145.566 142.122 145.929 141.741 146.281C140.92 147.049 141.565 148.333 142.644 148.832C144.21 149.559 152.243 147.495 155.374 140.564L146.227 135.298Z" fill="#F5F5F5"/>
<path d="M142.797 146.738C143.137 146.908 143.43 147.354 143.448 147.735C143.471 148.116 143.213 148.286 142.873 148.11C142.533 147.94 142.24 147.495 142.216 147.114C142.193 146.732 142.451 146.562 142.791 146.738H142.797Z" fill="#263238"/>
<path d="M153.904 207.324C151.3 207.324 148.726 206.831 146.656 205.835L74.8641 171.167C67.5342 167.631 62.591 160.389 61.9635 152.274L54.7861 59.5772L58.0289 59.3251L65.2063 152.022C65.7458 158.988 69.9854 165.198 76.2773 168.235L148.069 202.903C151.617 204.615 157.504 204.398 160.917 202.428L200.78 179.412C202.152 178.62 202.932 177.594 202.973 176.533C203.014 175.465 202.316 174.386 201.008 173.489L140.522 131.92C134.781 127.974 131.175 121.729 130.641 114.78L123.329 20.3009L126.572 20.0487L133.884 114.528C134.347 120.491 137.438 125.851 142.363 129.234L202.85 170.804C205.078 172.334 206.303 174.469 206.221 176.656C206.133 178.843 204.744 180.878 202.404 182.227L162.541 205.242C160.16 206.614 157.006 207.318 153.892 207.318L153.904 207.324Z" fill="#455A64"/>
<path d="M207.007 141.912L132.823 90.9314C131.914 90.3099 130.525 89.9287 129.111 89.9287C127.909 89.9287 126.789 90.1867 125.968 90.6676L61.4127 127.938C60.9319 128.214 60.709 128.466 60.6328 128.589C60.7208 128.701 60.9612 128.935 61.4596 129.176L150.837 172.334C151.728 172.762 152.936 173.003 154.25 173.003C155.816 173.003 157.37 172.651 158.396 172.058L206.931 144.035C207.482 143.712 207.846 143.314 207.858 143.009C207.875 142.704 207.535 142.276 207.013 141.918L207.007 141.912ZM182.819 154.091L173.882 159.258C172.586 160.008 170.469 160.026 169.156 159.31L146.545 146.914C146.422 146.844 146.304 146.773 146.205 146.691C146.298 146.615 146.404 146.545 146.521 146.48L156.631 140.64C157.927 139.889 160.02 139.907 161.304 140.675L182.842 153.57C182.977 153.652 183.094 153.734 183.2 153.822C183.094 153.921 182.96 154.004 182.819 154.086V154.091ZM165.773 163.937L156.818 169.103C155.522 169.854 153.388 169.924 152.039 169.261L128.126 157.475C128.015 157.422 127.909 157.358 127.81 157.293C127.88 157.24 127.962 157.188 128.044 157.141L138.118 151.324C139.414 150.573 141.537 150.544 142.856 151.247L165.731 163.521C165.855 163.585 165.966 163.655 166.066 163.732C165.972 163.802 165.878 163.867 165.767 163.931L165.773 163.937ZM70.49 128.771L82.8159 121.652C84.1119 120.896 86.2346 120.867 87.554 121.576L106.969 131.996C107.092 132.061 107.204 132.131 107.304 132.207C107.21 132.278 107.116 132.342 107.005 132.407L95.6637 138.957C94.3678 139.707 92.2275 139.778 90.8788 139.115L70.5663 129.1C70.4548 129.047 70.3434 128.982 70.2437 128.918C70.3141 128.871 70.3962 128.818 70.4783 128.771H70.49ZM91.7877 116.475L104.248 109.285C105.544 108.535 107.638 108.552 108.922 109.321L127.188 120.257C127.323 120.339 127.44 120.421 127.546 120.515C127.434 120.614 127.305 120.697 127.165 120.779L115.73 127.376C114.434 128.126 112.311 128.15 110.998 127.428L91.8112 116.908C91.688 116.838 91.5707 116.768 91.4711 116.686C91.5649 116.609 91.6704 116.539 91.7877 116.475ZM153.353 136.453L143.097 142.375C141.801 143.126 139.684 143.149 138.371 142.428L119.184 131.908C119.061 131.838 118.943 131.768 118.844 131.686C118.938 131.609 119.037 131.539 119.155 131.474L130.443 124.96C131.738 124.209 133.832 124.227 135.116 124.995L153.376 135.931C153.511 136.013 153.628 136.095 153.734 136.189C153.628 136.289 153.493 136.371 153.353 136.453ZM172.1 125.634L161.803 131.586C160.507 132.336 158.419 132.307 157.141 131.527L139.115 120.485C138.98 120.403 138.857 120.31 138.752 120.222C138.863 120.116 139.004 120.028 139.15 119.94L150.521 113.378C151.816 112.628 153.881 112.698 155.118 113.531L172.205 124.995C172.346 125.089 172.463 125.188 172.575 125.3C172.446 125.423 172.287 125.54 172.106 125.64L172.1 125.634ZM147.43 109.074L135.908 115.73C134.612 116.48 132.524 116.451 131.246 115.671L113.22 104.635C113.08 104.547 112.962 104.459 112.851 104.371C112.968 104.266 113.103 104.172 113.255 104.084L125.851 96.8188C127.147 96.0682 129.211 96.1386 130.448 96.9771L147.53 108.441C147.671 108.535 147.788 108.629 147.899 108.74C147.77 108.863 147.612 108.981 147.43 109.08V109.074ZM99.2759 142.956L110.482 136.488C111.778 135.737 113.9 135.708 115.214 136.412L134.635 146.832C134.758 146.896 134.87 146.967 134.969 147.049C134.876 147.119 134.782 147.184 134.67 147.242L124.444 153.147C123.148 153.898 121.008 153.968 119.659 153.306L99.3521 143.29C99.2407 143.237 99.1352 143.179 99.0355 143.108C99.1058 143.061 99.1879 143.009 99.27 142.962L99.2759 142.956ZM164.635 136.066C164.746 135.96 164.887 135.872 165.034 135.784L175.184 129.926C176.486 129.176 178.544 129.24 179.787 130.079L199.953 143.619C200.094 143.712 200.211 143.812 200.323 143.923C200.194 144.047 200.035 144.164 199.853 144.264L190.929 149.418C189.633 150.169 187.551 150.139 186.267 149.359L164.998 136.336C164.858 136.248 164.74 136.16 164.629 136.072L164.635 136.066Z" fill="#F0860E"/>
<g opacity="0.7">
<path d="M207.007 141.912L132.823 90.9314C131.914 90.3099 130.525 89.9287 129.111 89.9287C127.909 89.9287 126.789 90.1867 125.968 90.6676L61.4127 127.938C60.9319 128.214 60.709 128.466 60.6328 128.589C60.7208 128.701 60.9612 128.935 61.4596 129.176L150.837 172.334C151.728 172.762 152.936 173.003 154.25 173.003C155.816 173.003 157.37 172.651 158.396 172.058L206.931 144.035C207.482 143.712 207.846 143.314 207.858 143.009C207.875 142.704 207.535 142.276 207.013 141.918L207.007 141.912ZM182.819 154.091L173.882 159.258C172.586 160.008 170.469 160.026 169.156 159.31L146.545 146.914C146.422 146.844 146.304 146.773 146.205 146.691C146.298 146.615 146.404 146.545 146.521 146.48L156.631 140.64C157.927 139.889 160.02 139.907 161.304 140.675L182.842 153.57C182.977 153.652 183.094 153.734 183.2 153.822C183.094 153.921 182.96 154.004 182.819 154.086V154.091ZM165.773 163.937L156.818 169.103C155.522 169.854 153.388 169.924 152.039 169.261L128.126 157.475C128.015 157.422 127.909 157.358 127.81 157.293C127.88 157.24 127.962 157.188 128.044 157.141L138.118 151.324C139.414 150.573 141.537 150.544 142.856 151.247L165.731 163.521C165.855 163.585 165.966 163.655 166.066 163.732C165.972 163.802 165.878 163.867 165.767 163.931L165.773 163.937ZM70.49 128.771L82.8159 121.652C84.1119 120.896 86.2346 120.867 87.554 121.576L106.969 131.996C107.092 132.061 107.204 132.131 107.304 132.207C107.21 132.278 107.116 132.342 107.005 132.407L95.6637 138.957C94.3678 139.707 92.2275 139.778 90.8788 139.115L70.5663 129.1C70.4548 129.047 70.3434 128.982 70.2437 128.918C70.3141 128.871 70.3962 128.818 70.4783 128.771H70.49ZM91.7877 116.475L104.248 109.285C105.544 108.535 107.638 108.552 108.922 109.321L127.188 120.257C127.323 120.339 127.44 120.421 127.546 120.515C127.434 120.614 127.305 120.697 127.165 120.779L115.73 127.376C114.434 128.126 112.311 128.15 110.998 127.428L91.8112 116.908C91.688 116.838 91.5707 116.768 91.4711 116.686C91.5649 116.609 91.6704 116.539 91.7877 116.475ZM153.353 136.453L143.097 142.375C141.801 143.126 139.684 143.149 138.371 142.428L119.184 131.908C119.061 131.838 118.943 131.768 118.844 131.686C118.938 131.609 119.037 131.539 119.155 131.474L130.443 124.96C131.738 124.209 133.832 124.227 135.116 124.995L153.376 135.931C153.511 136.013 153.628 136.095 153.734 136.189C153.628 136.289 153.493 136.371 153.353 136.453ZM172.1 125.634L161.803 131.586C160.507 132.336 158.419 132.307 157.141 131.527L139.115 120.485C138.98 120.403 138.857 120.31 138.752 120.222C138.863 120.116 139.004 120.028 139.15 119.94L150.521 113.378C151.816 112.628 153.881 112.698 155.118 113.531L172.205 124.995C172.346 125.089 172.463 125.188 172.575 125.3C172.446 125.423 172.287 125.54 172.106 125.64L172.1 125.634ZM147.43 109.074L135.908 115.73C134.612 116.48 132.524 116.451 131.246 115.671L113.22 104.635C113.08 104.547 112.962 104.459 112.851 104.371C112.968 104.266 113.103 104.172 113.255 104.084L125.851 96.8188C127.147 96.0682 129.211 96.1386 130.448 96.9771L147.53 108.441C147.671 108.535 147.788 108.629 147.899 108.74C147.77 108.863 147.612 108.981 147.43 109.08V109.074ZM99.2759 142.956L110.482 136.488C111.778 135.737 113.9 135.708 115.214 136.412L134.635 146.832C134.758 146.896 134.87 146.967 134.969 147.049C134.876 147.119 134.782 147.184 134.67 147.242L124.444 153.147C123.148 153.898 121.008 153.968 119.659 153.306L99.3521 143.29C99.2407 143.237 99.1352 143.179 99.0355 143.108C99.1058 143.061 99.1879 143.009 99.27 142.962L99.2759 142.956ZM164.635 136.066C164.746 135.96 164.887 135.872 165.034 135.784L175.184 129.926C176.486 129.176 178.544 129.24 179.787 130.079L199.953 143.619C200.094 143.712 200.211 143.812 200.323 143.923C200.194 144.047 200.035 144.164 199.853 144.264L190.929 149.418C189.633 150.169 187.551 150.139 186.267 149.359L164.998 136.336C164.858 136.248 164.74 136.16 164.629 136.072L164.635 136.066Z" fill="white"/>
</g>
<path d="M134.629 144.604L115.208 134.183C113.889 133.48 111.772 133.509 110.476 134.26L99.27 140.728C98.0797 141.414 98.0152 142.422 99.0355 143.097C99.1058 143.05 99.1879 142.997 99.27 142.95L110.476 136.482C111.772 135.732 113.895 135.702 115.208 136.406L134.629 146.826C134.752 146.891 134.864 146.961 134.964 147.043C135.955 146.292 135.837 145.249 134.629 144.604ZM199.947 141.39L179.781 127.85C178.532 127.018 176.48 126.947 175.178 127.698L165.028 133.556C163.873 134.224 163.732 135.28 164.629 136.06C164.74 135.954 164.881 135.866 165.028 135.778L175.178 129.92C176.48 129.17 178.538 129.234 179.781 130.073L199.947 143.613C200.088 143.706 200.205 143.806 200.317 143.918C201.138 143.161 201.015 142.111 199.947 141.39ZM106.975 129.768L87.5598 119.348C86.2346 118.638 84.1177 118.673 82.8218 119.424L70.4959 126.543C69.3114 127.229 69.241 128.237 70.2613 128.912C70.3317 128.865 70.4138 128.812 70.4959 128.765L82.8218 121.646C84.1177 120.89 86.2405 120.861 87.5598 121.57L106.975 131.99C107.098 132.055 107.21 132.125 107.309 132.201C108.295 131.457 108.183 130.413 106.975 129.768ZM165.737 161.298L142.862 149.031C141.537 148.321 139.42 148.351 138.124 149.101L128.05 154.918C126.86 155.604 126.789 156.619 127.815 157.293C127.886 157.24 127.968 157.188 128.05 157.141L138.124 151.324C139.42 150.573 141.543 150.544 142.862 151.247L165.737 163.521C165.86 163.585 165.972 163.655 166.072 163.732C167.057 162.987 166.945 161.943 165.737 161.298ZM182.842 151.347L161.304 138.452C160.02 137.69 157.927 137.667 156.631 138.417L146.521 144.252C145.349 144.932 145.249 145.97 146.205 146.685C146.298 146.609 146.404 146.539 146.521 146.474L156.631 140.634C157.927 139.883 160.02 139.901 161.304 140.669L182.842 153.564C182.977 153.646 183.094 153.728 183.2 153.816C184.103 153.065 183.986 152.016 182.842 151.335V151.347ZM127.188 118.028L108.922 107.092C107.638 106.324 105.544 106.306 104.248 107.057L91.7877 114.246C90.6149 114.926 90.5152 115.958 91.4711 116.68C91.5649 116.603 91.6704 116.533 91.7877 116.469L104.248 109.279C105.544 108.529 107.638 108.546 108.922 109.315L127.188 120.251C127.323 120.333 127.44 120.415 127.546 120.509C128.449 119.758 128.332 118.709 127.188 118.023V118.028ZM147.524 106.213L130.443 94.7487C129.199 93.9161 127.141 93.8457 125.845 94.5904L113.25 101.862C112.089 102.53 111.948 103.586 112.845 104.366C112.962 104.26 113.097 104.166 113.25 104.078L125.845 96.8128C127.141 96.0623 129.205 96.1326 130.443 96.9712L147.524 108.435C147.665 108.529 147.782 108.623 147.893 108.734C148.72 107.978 148.597 106.928 147.524 106.213ZM153.376 133.703L135.116 122.772C133.832 122.004 131.738 121.987 130.443 122.737L119.155 129.252C117.982 129.932 117.888 130.97 118.844 131.685C118.938 131.609 119.037 131.539 119.155 131.474L130.443 124.96C131.738 124.209 133.832 124.227 135.116 124.995L153.376 135.931C153.511 136.013 153.628 136.095 153.734 136.189C154.637 135.444 154.52 134.395 153.376 133.703ZM172.193 122.766L155.106 111.303C153.863 110.47 151.805 110.399 150.509 111.144L139.139 117.706C137.978 118.374 137.837 119.436 138.74 120.21C138.851 120.104 138.992 120.016 139.139 119.928L150.509 113.367C151.805 112.616 153.869 112.686 155.106 113.519L172.193 124.983C172.334 125.077 172.451 125.177 172.563 125.288C173.384 124.531 173.261 123.482 172.193 122.766Z" fill="#F0860E"/>
<path opacity="0.3" d="M107.309 132.207C108.295 131.463 108.183 130.419 106.975 129.774L87.5598 119.354C86.2346 118.644 84.1177 118.679 82.8218 119.43L70.4959 126.549C69.3114 127.235 69.241 128.243 70.2613 128.918C70.3317 128.871 70.4138 128.818 70.4959 128.771L82.8218 121.658C84.1177 120.902 86.2405 120.872 87.5598 121.582L106.975 132.002C107.098 132.067 107.21 132.137 107.309 132.213V132.207ZM91.4711 116.686C91.5649 116.609 91.6704 116.539 91.7877 116.474L104.248 109.285C105.544 108.535 107.638 108.552 108.922 109.321L127.188 120.257C127.323 120.339 127.44 120.421 127.546 120.515C128.449 119.764 128.332 118.714 127.188 118.028L108.922 107.092C107.638 106.324 105.544 106.306 104.248 107.057L91.7877 114.246C90.6149 114.926 90.5152 115.958 91.4711 116.68V116.686ZM138.74 120.216C138.851 120.11 138.992 120.022 139.139 119.934L150.509 113.372C151.805 112.622 153.869 112.692 155.106 113.525L172.193 124.989C172.334 125.083 172.451 125.182 172.563 125.294C173.384 124.537 173.261 123.488 172.193 122.772L155.106 111.308C153.863 110.476 151.805 110.405 150.509 111.15L139.139 117.712C137.978 118.38 137.837 119.442 138.74 120.216ZM135.11 122.778C133.826 122.01 131.733 121.992 130.437 122.743L119.149 129.258C117.976 129.938 117.882 130.976 118.838 131.691C118.932 131.615 119.031 131.545 119.149 131.48L130.437 124.965C131.733 124.215 133.826 124.232 135.11 125.001L153.37 135.937C153.505 136.019 153.623 136.101 153.728 136.195C154.631 135.45 154.514 134.4 153.37 133.708L135.11 122.778ZM113.25 104.084L125.845 96.8187C127.141 96.0681 129.205 96.1385 130.443 96.977L147.524 108.441C147.665 108.535 147.782 108.629 147.893 108.74C148.72 107.984 148.597 106.934 147.524 106.219L130.443 94.7546C129.199 93.9219 127.141 93.8516 125.845 94.5963L113.25 101.868C112.089 102.536 111.948 103.591 112.845 104.371C112.962 104.266 113.097 104.172 113.25 104.084ZM182.842 151.353L161.304 138.458C160.02 137.696 157.927 137.672 156.631 138.423L146.521 144.258C145.349 144.938 145.249 145.976 146.205 146.691C146.298 146.615 146.404 146.545 146.521 146.48L156.631 140.64C157.927 139.889 160.02 139.907 161.304 140.675L182.842 153.569C182.977 153.652 183.094 153.734 183.2 153.822C184.103 153.071 183.986 152.021 182.842 151.341V151.353ZM134.969 147.055C135.96 146.304 135.843 145.26 134.635 144.615L115.214 134.195C113.895 133.492 111.778 133.521 110.482 134.271L99.2759 140.739C98.0855 141.425 98.021 142.434 99.0413 143.108C99.1117 143.061 99.1938 143.009 99.2759 142.962L110.482 136.494C111.778 135.743 113.9 135.714 115.214 136.418L134.635 146.838C134.758 146.902 134.87 146.973 134.969 147.055ZM199.947 141.402L179.781 127.862C178.532 127.029 176.48 126.959 175.178 127.71L165.028 133.568C163.873 134.236 163.732 135.292 164.629 136.072C164.74 135.966 164.881 135.878 165.028 135.79L175.178 129.932C176.48 129.182 178.538 129.246 179.781 130.085L199.947 143.624C200.088 143.718 200.205 143.818 200.317 143.929C201.138 143.173 201.015 142.123 199.947 141.402ZM165.737 161.304L142.862 149.037C141.537 148.327 139.42 148.356 138.124 149.107L128.05 154.924C126.86 155.61 126.789 156.625 127.815 157.299C127.886 157.246 127.968 157.193 128.05 157.146L138.124 151.329C139.42 150.579 141.543 150.55 142.862 151.253L165.737 163.526C165.86 163.591 165.972 163.661 166.072 163.737C167.057 162.993 166.945 161.949 165.737 161.304Z" fill="white"/>
<path d="M129.704 88.8145L129.663 87.7707L126.748 19.4739C126.444 19.4387 126.133 19.4153 125.828 19.4153C124.743 19.4153 123.723 19.6557 122.966 20.0955L56.1003 58.7034C55.42 59.0904 55.2617 59.4305 55.2559 59.4892L60.3633 126.044L60.6331 128.589C60.7093 128.466 60.9321 128.214 61.413 127.938L125.969 90.6675C126.79 90.1925 127.904 89.9286 129.112 89.9286C129.329 89.9286 129.54 89.9404 129.751 89.958L129.704 88.8204V88.8145ZM120.058 64.8429L107.263 72.2373C107.046 72.3604 106.835 72.4484 106.635 72.4953C106.6 72.3369 106.571 72.161 106.559 71.9675L105.896 59.8586C105.82 58.3633 106.8 56.5455 108.101 55.7949L121.055 48.3184C121.266 48.2012 121.465 48.1132 121.664 48.0663C121.706 48.2246 121.729 48.3947 121.741 48.5882L122.292 60.7851C122.356 62.2804 121.36 64.0982 120.064 64.8488L120.058 64.8429ZM120.744 26.5575L121.289 38.7544C121.354 40.2497 120.357 42.0734 119.061 42.824L106.072 50.3239C105.855 50.447 105.644 50.535 105.445 50.5819C105.41 50.4236 105.38 50.2477 105.369 50.0541L104.706 37.9452C104.63 36.4558 105.609 34.6321 106.911 33.8815L120.064 26.2878C120.269 26.1705 120.474 26.0825 120.673 26.0356C120.715 26.1939 120.738 26.364 120.75 26.5575H120.744ZM86.0355 68.5313L98.9888 61.0548C99.2058 60.9317 99.4227 60.8437 99.6221 60.7968C99.6632 60.9551 99.6925 61.131 99.7042 61.3246L100.384 73.4159C100.472 74.9112 99.4872 76.729 98.1855 77.4796L85.3787 84.874C85.1559 85.003 84.933 85.0909 84.7278 85.1378C84.6868 84.9795 84.6516 84.8036 84.6398 84.6101L83.8658 72.6008C83.7661 71.1055 84.7395 69.2877 86.0355 68.5371V68.5313ZM98.4669 39.4346L99.153 51.526C99.2351 53.0213 98.25 54.8449 96.954 55.5955L83.9714 63.0896C83.7485 63.2186 83.5316 63.3065 83.3205 63.3476C83.2794 63.1893 83.2442 63.0192 83.2325 62.8257L82.4526 50.8106C82.3529 49.3212 83.3263 47.4975 84.6281 46.7469L97.7515 39.1708C97.9685 39.0476 98.1854 38.9597 98.3848 38.9127C98.4259 39.0711 98.4552 39.2411 98.4669 39.4346ZM63.9813 81.2677L76.9288 73.7912C77.1517 73.6622 77.3745 73.5742 77.5856 73.5273C77.6266 73.6915 77.6618 73.8616 77.6735 74.0609L78.4769 86.0467C78.5766 87.542 77.6032 89.3598 76.3073 90.1104L63.4888 97.5165C63.2601 97.6455 63.0372 97.7393 62.8203 97.7804C62.7734 97.6162 62.7441 97.4462 62.7265 97.2526L61.8293 85.3313C61.7179 83.8419 62.6796 82.0241 63.9755 81.2735L63.9813 81.2677ZM76.2134 52.3L77.0168 64.2917C77.1223 65.7811 76.1489 67.5989 74.853 68.3554L61.8703 75.8436C61.6416 75.9726 61.413 76.0664 61.2019 76.1074C61.1549 75.9491 61.1256 75.7732 61.108 75.5797L60.2109 63.6642C60.0994 62.1748 61.0611 60.357 62.357 59.6006L75.4687 52.0361C75.6974 51.9071 75.9144 51.8133 76.1255 51.7664C76.1665 51.9306 76.2017 52.1006 76.2134 52.3ZM64.3449 118.902L63.4536 106.987C63.3422 105.491 64.3039 103.674 65.5998 102.923L78.3831 95.5404C78.6059 95.4114 78.8229 95.3234 79.034 95.2824C79.075 95.4407 79.1102 95.6108 79.1219 95.8043L79.9253 107.796C80.0308 109.291 79.0574 111.109 77.7615 111.86L65.1072 119.166C64.8726 119.295 64.6498 119.389 64.4329 119.43C64.3859 119.266 64.3566 119.096 64.339 118.902H64.3449ZM86.053 106.383L85.2731 94.3676C85.1735 92.8782 86.1527 91.0545 87.4487 90.3039L100.22 82.933C100.437 82.8099 100.648 82.7219 100.848 82.6809C100.889 82.8392 100.918 83.0092 100.93 83.1969L101.616 95.2941C101.698 96.7835 100.713 98.6072 99.4169 99.3578L86.7919 106.647C86.5691 106.776 86.3521 106.864 86.141 106.91C86.1 106.746 86.0648 106.576 86.053 106.383ZM107.738 93.8809L107.075 81.7661C106.999 80.2767 107.978 78.453 109.28 77.7024L122.034 70.3374C122.239 70.2201 122.444 70.1321 122.644 70.0852C122.685 70.2435 122.708 70.4136 122.72 70.6071L123.271 82.804C123.336 84.2993 122.339 86.123 121.043 86.8735L108.441 94.1448C108.224 94.2679 108.013 94.3559 107.814 94.3969C107.773 94.2386 107.749 94.0686 107.738 93.8809Z" fill="#F0860E"/>
<path opacity="0.3" d="M129.704 88.8145L129.663 87.7707L126.748 19.4739C126.444 19.4387 126.133 19.4153 125.828 19.4153C124.743 19.4153 123.723 19.6557 122.966 20.0955L56.1003 58.7034C55.42 59.0904 55.2617 59.4305 55.2559 59.4892L60.3633 126.044L60.6331 128.589C60.7093 128.466 60.9321 128.214 61.413 127.938L125.969 90.6675C126.79 90.1925 127.904 89.9286 129.112 89.9286C129.329 89.9286 129.54 89.9404 129.751 89.958L129.704 88.8204V88.8145ZM120.058 64.8429L107.263 72.2373C107.046 72.3604 106.835 72.4484 106.635 72.4953C106.6 72.3369 106.571 72.161 106.559 71.9675L105.896 59.8586C105.82 58.3633 106.8 56.5455 108.101 55.7949L121.055 48.3184C121.266 48.2012 121.465 48.1132 121.664 48.0663C121.706 48.2246 121.729 48.3947 121.741 48.5882L122.292 60.7851C122.356 62.2804 121.36 64.0982 120.064 64.8488L120.058 64.8429ZM120.744 26.5575L121.289 38.7544C121.354 40.2497 120.357 42.0734 119.061 42.824L106.072 50.3239C105.855 50.447 105.644 50.535 105.445 50.5819C105.41 50.4236 105.38 50.2477 105.369 50.0541L104.706 37.9452C104.63 36.4558 105.609 34.6321 106.911 33.8815L120.064 26.2878C120.269 26.1705 120.474 26.0825 120.673 26.0356C120.715 26.1939 120.738 26.364 120.75 26.5575H120.744ZM86.0355 68.5313L98.9888 61.0548C99.2058 60.9317 99.4227 60.8437 99.6221 60.7968C99.6632 60.9551 99.6925 61.131 99.7042 61.3246L100.384 73.4159C100.472 74.9112 99.4872 76.729 98.1855 77.4796L85.3787 84.874C85.1559 85.003 84.933 85.0909 84.7278 85.1378C84.6868 84.9795 84.6516 84.8036 84.6398 84.6101L83.8658 72.6008C83.7661 71.1055 84.7395 69.2877 86.0355 68.5371V68.5313ZM98.4669 39.4346L99.153 51.526C99.2351 53.0213 98.25 54.8449 96.954 55.5955L83.9714 63.0896C83.7485 63.2186 83.5316 63.3065 83.3205 63.3476C83.2794 63.1893 83.2442 63.0192 83.2325 62.8257L82.4526 50.8106C82.3529 49.3212 83.3263 47.4975 84.6281 46.7469L97.7515 39.1708C97.9685 39.0476 98.1854 38.9597 98.3848 38.9127C98.4259 39.0711 98.4552 39.2411 98.4669 39.4346ZM63.9813 81.2677L76.9288 73.7912C77.1517 73.6622 77.3745 73.5742 77.5856 73.5273C77.6266 73.6915 77.6618 73.8616 77.6735 74.0609L78.4769 86.0467C78.5766 87.542 77.6032 89.3598 76.3073 90.1104L63.4888 97.5165C63.2601 97.6455 63.0372 97.7393 62.8203 97.7804C62.7734 97.6162 62.7441 97.4462 62.7265 97.2526L61.8293 85.3313C61.7179 83.8419 62.6796 82.0241 63.9755 81.2735L63.9813 81.2677ZM76.2134 52.3L77.0168 64.2917C77.1223 65.7811 76.1489 67.5989 74.853 68.3554L61.8703 75.8436C61.6416 75.9726 61.413 76.0664 61.2019 76.1074C61.1549 75.9491 61.1256 75.7732 61.108 75.5797L60.2109 63.6642C60.0994 62.1748 61.0611 60.357 62.357 59.6006L75.4687 52.0361C75.6974 51.9071 75.9144 51.8133 76.1255 51.7664C76.1665 51.9306 76.2017 52.1006 76.2134 52.3ZM64.3449 118.902L63.4536 106.987C63.3422 105.491 64.3039 103.674 65.5998 102.923L78.3831 95.5404C78.6059 95.4114 78.8229 95.3234 79.034 95.2824C79.075 95.4407 79.1102 95.6108 79.1219 95.8043L79.9253 107.796C80.0308 109.291 79.0574 111.109 77.7615 111.86L65.1072 119.166C64.8726 119.295 64.6498 119.389 64.4329 119.43C64.3859 119.266 64.3566 119.096 64.339 118.902H64.3449ZM86.053 106.383L85.2731 94.3676C85.1735 92.8782 86.1527 91.0545 87.4487 90.3039L100.22 82.933C100.437 82.8099 100.648 82.7219 100.848 82.6809C100.889 82.8392 100.918 83.0092 100.93 83.1969L101.616 95.2941C101.698 96.7835 100.713 98.6072 99.4169 99.3578L86.7919 106.647C86.5691 106.776 86.3521 106.864 86.141 106.91C86.1 106.746 86.0648 106.576 86.053 106.383ZM107.738 93.8809L107.075 81.7661C106.999 80.2767 107.978 78.453 109.28 77.7024L122.034 70.3374C122.239 70.2201 122.444 70.1321 122.644 70.0852C122.685 70.2435 122.708 70.4136 122.72 70.6071L123.271 82.804C123.336 84.2993 122.339 86.123 121.043 86.8735L108.441 94.1448C108.224 94.2679 108.013 94.3559 107.814 94.3969C107.773 94.2386 107.749 94.0686 107.738 93.8809Z" fill="white"/>
<path d="M102.73 84.2817C102.66 83.0327 101.868 82.4112 100.86 82.675C100.901 82.8334 100.93 83.0034 100.942 83.191L101.628 95.2883C101.71 96.7777 100.725 98.6014 99.4289 99.3519L86.8039 106.641C86.5811 106.77 86.3641 106.858 86.153 106.905C86.458 108.001 87.4607 108.382 88.5924 107.731L101.217 100.443C102.513 99.6862 103.493 97.8743 103.41 96.3731L102.73 84.2817ZM123.524 49.6613C123.471 48.4005 122.685 47.779 121.659 48.0546C121.7 48.2129 121.723 48.383 121.735 48.5765L122.286 60.7734C122.351 62.2687 121.354 64.0865 120.058 64.8371L107.263 72.2314C107.046 72.3546 106.835 72.4425 106.636 72.4894C106.923 73.5919 107.92 73.9671 109.057 73.3162L121.852 65.9277C123.148 65.1772 124.145 63.3652 124.075 61.8641L123.53 49.6613H123.524ZM101.493 62.3977C101.428 61.1545 100.643 60.533 99.6283 60.7851C99.6693 60.9434 99.6986 61.1193 99.7104 61.3128L100.391 73.4042C100.479 74.8995 99.4934 76.7173 98.1916 77.4679L85.3849 84.8623C85.162 84.9913 84.9392 85.0792 84.734 85.1261C85.0389 86.2285 86.0416 86.6038 87.1733 85.9529L99.9801 78.5586C101.276 77.808 102.255 75.9902 102.179 74.4949L101.493 62.3977ZM122.533 27.6424C122.48 26.3875 121.694 25.7542 120.674 26.0298C120.715 26.1881 120.738 26.3582 120.75 26.5517L121.295 38.7486C121.36 40.2439 120.363 42.0675 119.067 42.8181L106.079 50.318C105.862 50.4412 105.65 50.5291 105.451 50.5761C105.738 51.6785 106.735 52.0596 107.873 51.4087L120.861 43.9088C122.157 43.1582 123.154 41.3404 123.084 39.8393L122.539 27.6424H122.533ZM100.256 40.5195C100.191 39.2705 99.3996 38.6489 98.391 38.9069C98.432 39.0652 98.4613 39.2353 98.4731 39.4288L99.1592 51.5201C99.2412 53.0154 98.2561 54.8391 96.9602 55.5897L83.9775 63.0837C83.7547 63.2128 83.5377 63.3007 83.3266 63.3418C83.6257 64.4442 84.6284 64.8253 85.7601 64.1744L98.7428 56.6745C100.045 55.9239 101.024 54.112 100.942 52.6108L100.256 40.5195ZM78.0081 53.379C77.9201 52.1476 77.1344 51.5201 76.1316 51.7606C76.1727 51.9247 76.2079 52.0948 76.2196 52.2942L77.0229 64.2858C77.1285 65.7753 76.1551 67.5931 74.8592 68.3495L61.8765 75.8377C61.6478 75.9667 61.4191 76.0606 61.208 76.1016C61.5188 77.204 62.5333 77.5793 63.665 76.9284L76.6418 69.4343C77.9377 68.6838 78.9111 66.8718 78.8114 65.3707L78.0081 53.379ZM124.515 71.6919C124.456 70.4371 123.67 69.8038 122.65 70.0794C122.691 70.2377 122.714 70.4078 122.726 70.6013L123.277 82.7982C123.342 84.2935 122.345 86.1171 121.049 86.8677L108.448 94.1389C108.231 94.2621 108.019 94.35 107.82 94.3911C108.102 95.4994 109.098 95.8805 110.242 95.2238L122.843 87.9525C124.139 87.202 125.136 85.3842 125.066 83.883L124.521 71.6861L124.515 71.6919ZM80.9166 96.8891C80.8345 95.6518 80.0428 95.0303 79.0401 95.2765C79.0812 95.4349 79.1164 95.6049 79.1281 95.7984L79.9314 107.79C80.037 109.285 79.0636 111.103 77.7677 111.854L65.1134 119.16C64.8788 119.289 64.656 119.383 64.439 119.424C64.7557 120.521 65.7701 120.902 66.9019 120.251L79.5503 112.944C80.8521 112.194 81.8196 110.382 81.7199 108.881L80.9166 96.8891ZM79.4565 75.1341C79.3744 73.9026 78.5886 73.2752 77.5859 73.5156C77.6269 73.6798 77.6621 73.8499 77.6738 74.0492L78.4772 86.035C78.5769 87.5303 77.6035 89.3481 76.3075 90.0987L63.4891 97.5048C63.2604 97.6338 63.0375 97.7276 62.8206 97.7687C63.1314 98.8652 64.1458 99.2405 65.2776 98.5896L78.096 91.1894C79.392 90.4388 80.3654 88.6269 80.2598 87.1257L79.4565 75.1341Z" fill="#F0860E"/>
<path d="M213.851 85.4077L129.552 20.5295C128.848 19.99 127.84 19.6147 126.749 19.4799L129.704 88.7853L129.751 89.958C130.871 90.0636 131.915 90.3333 132.824 90.9314L207.946 142.557L214.678 86.6801V86.6449C214.678 86.2696 214.379 85.8123 213.851 85.4135V85.4077ZM181.119 97.3641C181.119 97.4345 181.107 97.5049 181.096 97.5694C181.008 97.5225 180.92 97.4638 180.838 97.3993L162.918 84.5046C161.704 83.6309 160.748 81.7075 160.789 80.2064L161.07 69.493C161.07 69.4579 161.07 69.4168 161.07 69.3816C161.117 69.4168 161.164 69.4461 161.211 69.4813L179.811 83.2497C181.014 84.1469 181.905 86.0761 181.799 87.5714L181.113 97.3524L181.119 97.3641ZM207.084 116.252C206.967 116.193 206.844 116.117 206.721 116.029L188.947 103.24C187.734 102.36 186.836 100.443 186.96 98.9474L187.698 89.3013C187.698 89.2426 187.71 89.184 187.722 89.1254C187.81 89.1723 187.898 89.2368 187.98 89.3013L206.269 102.841C207.471 103.738 208.316 105.662 208.14 107.151L207.125 116C207.114 116.088 207.102 116.17 207.09 116.246L207.084 116.252ZM189.393 70.5485L208.328 85.0324C209.518 85.9413 210.339 87.8881 210.169 89.3775L209.16 98.2144C209.16 98.2848 209.143 98.3551 209.125 98.4196C209.014 98.361 208.896 98.2906 208.785 98.2027L190.361 84.4694C189.164 83.5723 188.285 81.6372 188.396 80.1477L189.135 70.5251C189.135 70.4782 189.135 70.4313 189.147 70.3902C189.229 70.4313 189.311 70.4958 189.393 70.5544V70.5485ZM161.715 49.3799L181.172 64.2624C182.362 65.1713 183.242 67.1182 183.136 68.6193L182.45 78.3827C182.45 78.4355 182.438 78.4941 182.433 78.5469C182.35 78.5 182.274 78.4413 182.192 78.3827L163.416 64.3914C162.22 63.4943 161.276 61.5533 161.317 60.058L161.592 49.3623C161.592 49.3623 161.592 49.3212 161.592 49.3036C161.627 49.333 161.669 49.3564 161.704 49.3857L161.715 49.3799ZM154.925 78.6055C154.925 78.6524 154.925 78.6994 154.925 78.7404C154.878 78.7111 154.831 78.6818 154.79 78.6466L136.665 65.6053C135.451 64.7257 134.425 62.8082 134.378 61.307L133.979 49.3212L153.008 63.4063C154.21 64.2976 155.165 66.2327 155.136 67.728L154.937 78.5997L154.925 78.6055ZM153.389 43.0175C154.579 43.9206 155.517 45.8733 155.494 47.3744L155.3 58.2461V58.3282C155.265 58.3047 155.218 58.2754 155.183 58.2461L135.914 43.8854C134.712 42.9882 133.698 41.0473 133.645 39.552L133.246 27.6072L153.389 43.0234V43.0175ZM154.38 99.0705L137.41 87.3134C136.178 86.4632 135.134 84.5574 135.087 83.0621L134.689 71.0822V71.0352C134.689 71.0352 134.689 71.0352 134.7 71.0352L152.591 83.8185C153.811 84.6923 154.778 86.6097 154.749 88.1109L154.55 98.9884C154.55 99.0529 154.55 99.1116 154.538 99.1702C154.485 99.135 154.432 99.1057 154.374 99.0647L154.38 99.0705ZM179.483 116.457L162.419 104.641C161.188 103.791 160.22 101.879 160.261 100.384L160.543 89.6648C160.543 89.6121 160.543 89.5593 160.554 89.5065C160.607 89.5417 160.66 89.5769 160.713 89.6121L178.463 102.29C179.677 103.164 180.585 105.075 180.48 106.576L179.794 116.375C179.794 116.463 179.776 116.545 179.765 116.621C179.671 116.58 179.577 116.516 179.483 116.451V116.457ZM204.651 133.896L187.534 122.034C186.303 121.183 185.4 119.278 185.511 117.788L186.244 108.119C186.244 108.042 186.262 107.966 186.273 107.896C186.367 107.948 186.455 108.007 186.549 108.077L204.205 120.691C205.425 121.559 206.275 123.47 206.105 124.96L205.091 133.832C205.079 133.937 205.061 134.025 205.044 134.119C204.921 134.06 204.792 133.99 204.657 133.896H204.651Z" fill="#F0860E"/>
<path opacity="0.5" d="M213.851 85.4077L129.552 20.5295C128.848 19.99 127.84 19.6147 126.749 19.4799L129.704 88.7853L129.751 89.958C130.871 90.0636 131.915 90.3333 132.824 90.9314L207.946 142.557L214.678 86.6801V86.6449C214.678 86.2696 214.379 85.8123 213.851 85.4135V85.4077ZM181.119 97.3641C181.119 97.4345 181.107 97.5049 181.096 97.5694C181.008 97.5225 180.92 97.4638 180.838 97.3993L162.918 84.5046C161.704 83.6309 160.748 81.7075 160.789 80.2064L161.07 69.493C161.07 69.4579 161.07 69.4168 161.07 69.3816C161.117 69.4168 161.164 69.4461 161.211 69.4813L179.811 83.2497C181.014 84.1469 181.905 86.0761 181.799 87.5714L181.113 97.3524L181.119 97.3641ZM207.084 116.252C206.967 116.193 206.844 116.117 206.721 116.029L188.947 103.24C187.734 102.36 186.836 100.443 186.96 98.9474L187.698 89.3013C187.698 89.2426 187.71 89.184 187.722 89.1254C187.81 89.1723 187.898 89.2368 187.98 89.3013L206.269 102.841C207.471 103.738 208.316 105.662 208.14 107.151L207.125 116C207.114 116.088 207.102 116.17 207.09 116.246L207.084 116.252ZM189.393 70.5485L208.328 85.0324C209.518 85.9413 210.339 87.8881 210.169 89.3775L209.16 98.2144C209.16 98.2848 209.143 98.3551 209.125 98.4196C209.014 98.361 208.896 98.2906 208.785 98.2027L190.361 84.4694C189.164 83.5723 188.285 81.6372 188.396 80.1477L189.135 70.5251C189.135 70.4782 189.135 70.4313 189.147 70.3902C189.229 70.4313 189.311 70.4958 189.393 70.5544V70.5485ZM161.715 49.3799L181.172 64.2624C182.362 65.1713 183.242 67.1182 183.136 68.6193L182.45 78.3827C182.45 78.4355 182.438 78.4941 182.433 78.5469C182.35 78.5 182.274 78.4413 182.192 78.3827L163.416 64.3914C162.22 63.4943 161.276 61.5533 161.317 60.058L161.592 49.3623C161.592 49.3623 161.592 49.3212 161.592 49.3036C161.627 49.333 161.669 49.3564 161.704 49.3857L161.715 49.3799ZM154.925 78.6055C154.925 78.6524 154.925 78.6994 154.925 78.7404C154.878 78.7111 154.831 78.6818 154.79 78.6466L136.665 65.6053C135.451 64.7257 134.425 62.8082 134.378 61.307L133.979 49.3212L153.008 63.4063C154.21 64.2976 155.165 66.2327 155.136 67.728L154.937 78.5997L154.925 78.6055ZM153.389 43.0175C154.579 43.9206 155.517 45.8733 155.494 47.3744L155.3 58.2461V58.3282C155.265 58.3047 155.218 58.2754 155.183 58.2461L135.914 43.8854C134.712 42.9882 133.698 41.0473 133.645 39.552L133.246 27.6072L153.389 43.0234V43.0175ZM154.38 99.0705L137.41 87.3134C136.178 86.4632 135.134 84.5574 135.087 83.0621L134.689 71.0822V71.0352C134.689 71.0352 134.689 71.0352 134.7 71.0352L152.591 83.8185C153.811 84.6923 154.778 86.6097 154.749 88.1109L154.55 98.9884C154.55 99.0529 154.55 99.1116 154.538 99.1702C154.485 99.135 154.432 99.1057 154.374 99.0647L154.38 99.0705ZM179.483 116.457L162.419 104.641C161.188 103.791 160.22 101.879 160.261 100.384L160.543 89.6648C160.543 89.6121 160.543 89.5593 160.554 89.5065C160.607 89.5417 160.66 89.5769 160.713 89.6121L178.463 102.29C179.677 103.164 180.585 105.075 180.48 106.576L179.794 116.375C179.794 116.463 179.776 116.545 179.765 116.621C179.671 116.58 179.577 116.516 179.483 116.451V116.457ZM204.651 133.896L187.534 122.034C186.303 121.183 185.4 119.278 185.511 117.788L186.244 108.119C186.244 108.042 186.262 107.966 186.273 107.896C186.367 107.948 186.455 108.007 186.549 108.077L204.205 120.691C205.425 121.559 206.275 123.47 206.105 124.96L205.091 133.832C205.079 133.937 205.061 134.025 205.044 134.119C204.921 134.06 204.792 133.99 204.657 133.896H204.651Z" fill="white"/>
<path d="M135.908 43.8796C134.706 42.9824 133.692 41.0414 133.639 39.5461L133.24 27.6014L133.199 27.5662C132.009 26.6632 131.082 27.1323 131.135 28.6276L131.534 40.631C131.581 42.1263 132.595 44.0613 133.797 44.9585L153.072 59.3251C154.25 60.2046 155.23 59.7473 155.294 58.3165C155.259 58.293 155.212 58.2637 155.177 58.2344L135.908 43.8737V43.8796ZM136.659 65.6053C135.445 64.7257 134.419 62.8082 134.372 61.3071L133.973 49.3213L133.955 49.3095C132.753 48.4123 131.821 48.9108 131.868 50.4061L132.267 62.3919C132.319 63.8872 133.346 65.8164 134.559 66.6901L152.685 79.7314C153.863 80.5817 154.843 80.1302 154.925 78.7404C154.878 78.7111 154.831 78.6818 154.79 78.6466L136.665 65.6053H136.659ZM162.419 104.641C161.187 103.791 160.22 101.879 160.261 100.384L160.542 89.6649C160.542 89.6121 160.542 89.5593 160.554 89.5065C159.411 88.7911 158.478 89.3189 158.437 90.7556L158.156 101.475C158.121 102.97 159.082 104.876 160.314 105.726L177.372 117.542C178.533 118.351 179.565 117.935 179.764 116.627C179.67 116.586 179.577 116.522 179.483 116.457L162.419 104.641ZM137.409 87.3134C136.178 86.4632 135.134 84.5574 135.087 83.0621L134.688 71.0822V71.0353C133.475 70.1733 132.531 70.6834 132.577 72.1729L132.976 84.1469C133.023 85.6422 134.061 87.548 135.292 88.3983L152.268 100.155C153.447 100.976 154.432 100.531 154.538 99.1761C154.485 99.1409 154.432 99.1116 154.374 99.0705L137.403 87.3134H137.409ZM208.785 98.1968L190.36 84.4636C189.164 83.5664 188.285 81.6313 188.396 80.1419L189.135 70.5192C189.135 70.4723 189.135 70.4254 189.146 70.3844C188.062 69.71 187.141 70.2143 187.03 71.6041L186.285 81.2267C186.173 82.722 187.053 84.6571 188.255 85.5543L206.674 99.2817C207.817 100.132 208.879 99.7449 209.125 98.4138C209.013 98.3552 208.896 98.2848 208.785 98.1968ZM162.917 84.5105C161.703 83.6368 160.748 81.7134 160.789 80.2123L161.07 69.4989C161.07 69.4637 161.07 69.4227 161.07 69.3875C159.933 68.6311 159 69.1412 158.959 70.5779L158.678 81.2971C158.643 82.7924 159.592 84.7157 160.806 85.5895L178.726 98.4842C179.882 99.3168 180.908 98.9005 181.09 97.5694C181.002 97.5225 180.914 97.4639 180.831 97.3993L162.911 84.5046L162.917 84.5105ZM188.947 103.24C187.733 102.36 186.836 100.443 186.959 98.9474L187.698 89.3013C187.698 89.2427 187.71 89.184 187.722 89.1254C186.625 88.4804 185.699 89.0022 185.593 90.392L184.848 100.032C184.737 101.528 185.628 103.451 186.842 104.325L204.615 117.12C205.759 117.946 206.82 117.548 207.084 116.252C206.967 116.193 206.844 116.117 206.721 116.029L188.947 103.24ZM187.534 122.034C186.303 121.183 185.399 119.278 185.511 117.788L186.244 108.119C186.244 108.042 186.261 107.966 186.273 107.896C185.171 107.286 184.244 107.825 184.139 109.203L183.4 118.873C183.288 120.368 184.191 122.268 185.423 123.124L202.546 134.981C203.695 135.779 204.756 135.386 205.038 134.119C204.915 134.06 204.786 133.99 204.651 133.896L187.534 122.034ZM163.422 64.3856C162.225 63.4884 161.281 61.5475 161.322 60.0522L161.598 49.3564C161.598 49.3564 161.598 49.3154 161.598 49.2978C160.46 48.5062 159.528 48.9929 159.487 50.4413L159.205 61.137C159.17 62.6323 160.108 64.5732 161.311 65.4704L180.087 79.4617C181.242 80.3237 182.262 79.9073 182.432 78.5411C182.35 78.4941 182.274 78.4355 182.192 78.3769L163.416 64.3856H163.422Z" fill="#F0860E"/>
<path opacity="0.2" d="M135.908 43.8796C134.706 42.9824 133.692 41.0414 133.639 39.5461L133.24 27.6014L133.199 27.5662C132.009 26.6632 131.082 27.1323 131.135 28.6276L131.534 40.631C131.581 42.1263 132.595 44.0613 133.797 44.9585L153.072 59.3251C154.25 60.2046 155.23 59.7473 155.294 58.3165C155.259 58.293 155.212 58.2637 155.177 58.2344L135.908 43.8737V43.8796ZM136.659 65.6053C135.445 64.7257 134.419 62.8082 134.372 61.3071L133.973 49.3213L133.955 49.3095C132.753 48.4123 131.821 48.9108 131.868 50.4061L132.267 62.3919C132.319 63.8872 133.346 65.8164 134.559 66.6901L152.685 79.7314C153.863 80.5817 154.843 80.1302 154.925 78.7404C154.878 78.7111 154.831 78.6818 154.79 78.6466L136.665 65.6053H136.659ZM162.419 104.641C161.187 103.791 160.22 101.879 160.261 100.384L160.542 89.6649C160.542 89.6121 160.542 89.5593 160.554 89.5065C159.411 88.7911 158.478 89.3189 158.437 90.7556L158.156 101.475C158.121 102.97 159.082 104.876 160.314 105.726L177.372 117.542C178.533 118.351 179.565 117.935 179.764 116.627C179.67 116.586 179.577 116.522 179.483 116.457L162.419 104.641ZM137.409 87.3134C136.178 86.4632 135.134 84.5574 135.087 83.0621L134.688 71.0822V71.0353C133.475 70.1733 132.531 70.6834 132.577 72.1729L132.976 84.1469C133.023 85.6422 134.061 87.548 135.292 88.3983L152.268 100.155C153.447 100.976 154.432 100.531 154.538 99.1761C154.485 99.1409 154.432 99.1116 154.374 99.0705L137.403 87.3134H137.409ZM208.785 98.1968L190.36 84.4636C189.164 83.5664 188.285 81.6313 188.396 80.1419L189.135 70.5192C189.135 70.4723 189.135 70.4254 189.146 70.3844C188.062 69.71 187.141 70.2143 187.03 71.6041L186.285 81.2267C186.173 82.722 187.053 84.6571 188.255 85.5543L206.674 99.2817C207.817 100.132 208.879 99.7449 209.125 98.4138C209.013 98.3552 208.896 98.2848 208.785 98.1968ZM162.917 84.5105C161.703 83.6368 160.748 81.7134 160.789 80.2123L161.07 69.4989C161.07 69.4637 161.07 69.4227 161.07 69.3875C159.933 68.6311 159 69.1412 158.959 70.5779L158.678 81.2971C158.643 82.7924 159.592 84.7157 160.806 85.5895L178.726 98.4842C179.882 99.3168 180.908 98.9005 181.09 97.5694C181.002 97.5225 180.914 97.4639 180.831 97.3993L162.911 84.5046L162.917 84.5105ZM188.947 103.24C187.733 102.36 186.836 100.443 186.959 98.9474L187.698 89.3013C187.698 89.2427 187.71 89.184 187.722 89.1254C186.625 88.4804 185.699 89.0022 185.593 90.392L184.848 100.032C184.737 101.528 185.628 103.451 186.842 104.325L204.615 117.12C205.759 117.946 206.82 117.548 207.084 116.252C206.967 116.193 206.844 116.117 206.721 116.029L188.947 103.24ZM187.534 122.034C186.303 121.183 185.399 119.278 185.511 117.788L186.244 108.119C186.244 108.042 186.261 107.966 186.273 107.896C185.171 107.286 184.244 107.825 184.139 109.203L183.4 118.873C183.288 120.368 184.191 122.268 185.423 123.124L202.546 134.981C203.695 135.779 204.756 135.386 205.038 134.119C204.915 134.06 204.786 133.99 204.651 133.896L187.534 122.034ZM163.422 64.3856C162.225 63.4884 161.281 61.5475 161.322 60.0522L161.598 49.3564C161.598 49.3564 161.598 49.3154 161.598 49.2978C160.46 48.5062 159.528 48.9929 159.487 50.4413L159.205 61.137C159.17 62.6323 160.108 64.5732 161.311 65.4704L180.087 79.4617C181.242 80.3237 182.262 79.9073 182.432 78.5411C182.35 78.4941 182.274 78.4355 182.192 78.3769L163.416 64.3856H163.422Z" fill="white"/>
<path d="M215.177 83.6896L130.877 18.8114C128.503 16.9819 124.48 16.718 121.882 18.2133L55.0161 56.8212C53.7261 57.5659 53.0869 58.5276 53.0811 59.4893H55.2507C55.2507 59.4306 55.4208 59.0905 56.0951 58.7035L122.967 20.0956C123.723 19.6558 124.744 19.4154 125.829 19.4154C127.253 19.4154 128.649 19.8317 129.552 20.5295L213.852 85.4077C214.391 85.8181 214.696 86.299 214.678 86.6743H216.848C216.866 85.6305 216.314 84.5574 215.177 83.6837V83.6896Z" fill="#F0860E"/>
<path opacity="0.7" d="M215.177 83.6896L130.877 18.8114C128.503 16.9819 124.48 16.718 121.882 18.2133L55.0161 56.8212C53.7261 57.5659 53.0869 58.5276 53.0811 59.4893H55.2507C55.2507 59.4306 55.4208 59.0905 56.0951 58.7035L122.967 20.0956C123.723 19.6558 124.744 19.4154 125.829 19.4154C127.253 19.4154 128.649 19.8317 129.552 20.5295L213.852 85.4077C214.391 85.8181 214.696 86.299 214.678 86.6743H216.848C216.866 85.6305 216.314 84.5574 215.177 83.6837V83.6896Z" fill="white"/>
<path d="M156.113 118.204L55.0601 62.1632C53.8756 61.5064 53.2306 60.6679 53.1074 59.7942L58.4436 128.73C58.4436 128.73 58.4436 128.777 58.4436 128.801C58.5374 129.668 59.2235 130.507 60.5077 131.128L149.885 174.287C151.293 174.967 153.122 175.248 154.928 175.149L161.021 119.272C159.25 119.313 157.461 118.961 156.107 118.21L156.113 118.204ZM128.335 105.72L154.717 120.269C156.031 120.996 156.969 122.79 156.822 124.279L155.749 134.958C155.726 135.169 155.685 135.362 155.626 135.538C155.468 135.497 155.298 135.427 155.139 135.339L129.754 121.822C128.429 121.119 127.409 119.336 127.468 117.841L127.919 106.078C127.919 105.896 127.954 105.72 127.989 105.562C128.101 105.603 128.224 105.662 128.341 105.726L128.335 105.72ZM120.941 137.714L96.7348 125.399C95.3979 124.719 94.2896 122.96 94.2603 121.465L93.9846 108.494C93.9846 108.312 93.9964 108.136 94.0198 107.978C94.1019 108.013 94.184 108.054 94.272 108.095L119.457 121.424C120.783 122.122 121.815 123.91 121.768 125.405L121.387 137.286C121.387 137.497 121.351 137.69 121.299 137.872C121.181 137.837 121.058 137.778 120.935 137.72L120.941 137.714ZM154.928 143.026L153.849 153.693C153.826 153.921 153.779 154.127 153.708 154.308C153.544 154.267 153.38 154.197 153.21 154.115L129.004 141.807C127.667 141.126 126.635 139.361 126.693 137.866L127.145 126.109C127.145 125.91 127.18 125.722 127.227 125.558C127.344 125.593 127.467 125.652 127.591 125.716L152.805 139.056C154.136 139.754 155.081 141.531 154.934 143.02L154.928 143.026ZM93.7794 86.6567L120.126 101.193C121.439 101.915 122.466 103.715 122.413 105.21L122.032 117.09C122.032 117.284 121.996 117.471 121.961 117.636C121.844 117.6 121.721 117.542 121.604 117.477L96.2481 103.979C94.9229 103.281 93.8263 101.492 93.797 99.9971L93.5155 87.0144C93.5155 86.8443 93.5155 86.6919 93.5449 86.5453C93.6211 86.5805 93.6973 86.6157 93.7794 86.6567ZM88.6778 121.301L64.4717 108.986C63.1347 108.306 61.9678 106.547 61.8564 105.052L60.8243 90.8553C60.8126 90.6911 60.8126 90.5386 60.8243 90.3979C60.8654 90.4155 60.9181 90.4331 60.965 90.4624L86.1563 103.791C87.4816 104.489 88.584 106.271 88.625 107.767L88.9652 120.855C88.9652 121.054 88.9534 121.242 88.9241 121.406C88.842 121.371 88.7599 121.336 88.672 121.295L88.6778 121.301ZM59.288 67.6342L85.5876 82.1356C86.9011 82.8569 87.9976 84.6571 88.0328 86.1524L88.3846 99.2582C88.3846 99.44 88.3846 99.6042 88.3494 99.7566C88.2732 99.7273 88.197 99.6921 88.1149 99.6511L62.7829 86.1641C61.4576 85.4605 60.2966 83.6778 60.191 82.1825L59.159 67.9861C59.1472 67.8395 59.1472 67.7046 59.159 67.5756C59.2 67.5932 59.2469 67.6166 59.288 67.6401V67.6342ZM89.1528 139.854L65.92 128.548C64.5772 127.892 63.3927 126.15 63.2813 124.661L62.4897 113.736C62.4779 113.554 62.4779 113.384 62.5014 113.226C62.5483 113.244 62.6069 113.267 62.6597 113.296L86.7017 125.441C88.0387 126.115 89.1587 127.874 89.1938 129.375L89.4636 139.379C89.4636 139.59 89.4519 139.784 89.4108 139.965C89.3228 139.936 89.2349 139.901 89.1528 139.86V139.854ZM120.372 155.047L97.1511 143.748C95.8083 143.091 94.6883 141.343 94.659 139.848L94.4479 129.944C94.4479 129.745 94.4596 129.551 94.4889 129.387C94.5769 129.422 94.6707 129.463 94.7528 129.504L118.789 141.642C120.126 142.317 121.176 144.076 121.129 145.577L120.841 154.572C120.841 154.801 120.806 155.012 120.742 155.194C120.618 155.159 120.489 155.106 120.366 155.047H120.372ZM151.562 170.229L128.365 158.935C127.022 158.284 125.972 156.537 126.031 155.041L126.371 146.152C126.383 145.935 126.406 145.735 126.465 145.554C126.588 145.589 126.717 145.642 126.846 145.706L150.882 157.844C152.219 158.525 153.181 160.272 153.028 161.767L152.213 169.76C152.19 170 152.137 170.217 152.061 170.411C151.891 170.376 151.726 170.305 151.556 170.229H151.562Z" fill="#F0860E"/>
<path opacity="0.5" d="M156.113 118.204L55.0601 62.1632C53.8756 61.5064 53.2306 60.6679 53.1074 59.7942L58.4436 128.73C58.4436 128.73 58.4436 128.777 58.4436 128.801C58.5374 129.668 59.2235 130.507 60.5077 131.128L149.885 174.287C151.293 174.967 153.122 175.248 154.928 175.149L161.021 119.272C159.25 119.313 157.461 118.961 156.107 118.21L156.113 118.204ZM128.335 105.72L154.717 120.269C156.031 120.996 156.969 122.79 156.822 124.279L155.749 134.958C155.726 135.169 155.685 135.362 155.626 135.538C155.468 135.497 155.298 135.427 155.139 135.339L129.754 121.822C128.429 121.119 127.409 119.336 127.468 117.841L127.919 106.078C127.919 105.896 127.954 105.72 127.989 105.562C128.101 105.603 128.224 105.662 128.341 105.726L128.335 105.72ZM120.941 137.714L96.7348 125.399C95.3979 124.719 94.2896 122.96 94.2603 121.465L93.9846 108.494C93.9846 108.312 93.9964 108.136 94.0198 107.978C94.1019 108.013 94.184 108.054 94.272 108.095L119.457 121.424C120.783 122.122 121.815 123.91 121.768 125.405L121.387 137.286C121.387 137.497 121.351 137.69 121.299 137.872C121.181 137.837 121.058 137.778 120.935 137.72L120.941 137.714ZM154.928 143.026L153.849 153.693C153.826 153.921 153.779 154.127 153.708 154.308C153.544 154.267 153.38 154.197 153.21 154.115L129.004 141.807C127.667 141.126 126.635 139.361 126.693 137.866L127.145 126.109C127.145 125.91 127.18 125.722 127.227 125.558C127.344 125.593 127.467 125.652 127.591 125.716L152.805 139.056C154.136 139.754 155.081 141.531 154.934 143.02L154.928 143.026ZM93.7794 86.6567L120.126 101.193C121.439 101.915 122.466 103.715 122.413 105.21L122.032 117.09C122.032 117.284 121.996 117.471 121.961 117.636C121.844 117.6 121.721 117.542 121.604 117.477L96.2481 103.979C94.9229 103.281 93.8263 101.492 93.797 99.9971L93.5155 87.0144C93.5155 86.8443 93.5155 86.6919 93.5449 86.5453C93.6211 86.5805 93.6973 86.6157 93.7794 86.6567ZM88.6778 121.301L64.4717 108.986C63.1347 108.306 61.9678 106.547 61.8564 105.052L60.8243 90.8553C60.8126 90.6911 60.8126 90.5386 60.8243 90.3979C60.8654 90.4155 60.9181 90.4331 60.965 90.4624L86.1563 103.791C87.4816 104.489 88.584 106.271 88.625 107.767L88.9652 120.855C88.9652 121.054 88.9534 121.242 88.9241 121.406C88.842 121.371 88.7599 121.336 88.672 121.295L88.6778 121.301ZM59.288 67.6342L85.5876 82.1356C86.9011 82.8569 87.9976 84.6571 88.0328 86.1524L88.3846 99.2582C88.3846 99.44 88.3846 99.6042 88.3494 99.7566C88.2732 99.7273 88.197 99.6921 88.1149 99.6511L62.7829 86.1641C61.4576 85.4605 60.2966 83.6778 60.191 82.1825L59.159 67.9861C59.1472 67.8395 59.1472 67.7046 59.159 67.5756C59.2 67.5932 59.2469 67.6166 59.288 67.6401V67.6342ZM89.1528 139.854L65.92 128.548C64.5772 127.892 63.3927 126.15 63.2813 124.661L62.4897 113.736C62.4779 113.554 62.4779 113.384 62.5014 113.226C62.5483 113.244 62.6069 113.267 62.6597 113.296L86.7017 125.441C88.0387 126.115 89.1587 127.874 89.1938 129.375L89.4636 139.379C89.4636 139.59 89.4519 139.784 89.4108 139.965C89.3228 139.936 89.2349 139.901 89.1528 139.86V139.854ZM120.372 155.047L97.1511 143.748C95.8083 143.091 94.6883 141.343 94.659 139.848L94.4479 129.944C94.4479 129.745 94.4596 129.551 94.4889 129.387C94.5769 129.422 94.6707 129.463 94.7528 129.504L118.789 141.642C120.126 142.317 121.176 144.076 121.129 145.577L120.841 154.572C120.841 154.801 120.806 155.012 120.742 155.194C120.618 155.159 120.489 155.106 120.366 155.047H120.372ZM151.562 170.229L128.365 158.935C127.022 158.284 125.972 156.537 126.031 155.041L126.371 146.152C126.383 145.935 126.406 145.735 126.465 145.554C126.588 145.589 126.717 145.642 126.846 145.706L150.882 157.844C152.219 158.525 153.181 160.272 153.028 161.767L152.213 169.76C152.19 170 152.137 170.217 152.061 170.411C151.891 170.376 151.726 170.305 151.556 170.229H151.562Z" fill="white"/>
<path d="M151.563 170.235L128.365 158.941C127.022 158.29 125.973 156.543 126.031 155.047L126.371 146.158C126.383 145.941 126.407 145.741 126.465 145.56C125.298 145.173 124.372 145.847 124.319 147.196L123.979 156.091C123.926 157.586 124.964 159.328 126.319 159.985L149.51 171.279C150.642 171.824 151.686 171.437 152.073 170.417C151.903 170.381 151.739 170.311 151.569 170.235H151.563ZM155.14 135.333L129.755 121.817C128.43 121.113 127.409 119.33 127.468 117.835L127.92 106.072C127.92 105.89 127.955 105.714 127.99 105.556C126.841 105.116 125.92 105.755 125.861 107.116L125.41 118.879C125.351 120.368 126.377 122.157 127.697 122.86L153.082 136.377C154.213 136.981 155.257 136.594 155.626 135.532C155.468 135.491 155.298 135.421 155.14 135.333ZM153.216 154.121L129.01 141.813C127.673 141.132 126.641 139.367 126.7 137.872L127.151 126.115C127.151 125.916 127.187 125.728 127.233 125.564C126.072 125.147 125.152 125.81 125.099 127.165L124.647 138.916C124.589 140.411 125.621 142.176 126.958 142.856L151.17 155.165C152.302 155.739 153.34 155.352 153.721 154.314C153.556 154.273 153.392 154.203 153.222 154.121H153.216ZM120.953 137.714L96.7471 125.4C95.4101 124.719 94.3018 122.96 94.2725 121.465L93.9969 108.494C93.9969 108.312 94.0086 108.136 94.0321 107.978C92.83 107.485 91.9093 108.142 91.9387 109.538L92.2143 122.509C92.2494 124.004 93.3519 125.769 94.6888 126.443L118.895 138.757C120.038 139.338 121.024 138.939 121.317 137.86C121.2 137.825 121.076 137.767 120.953 137.708V137.714ZM121.622 117.483L96.2662 103.985C94.941 103.287 93.8444 101.498 93.8151 100.003L93.5336 87.0203C93.5336 86.8503 93.5336 86.6978 93.563 86.5512C92.3667 86.0235 91.4461 86.6626 91.4813 88.07L91.7627 101.047C91.7979 102.542 92.8945 104.331 94.2139 105.034L119.575 118.533C120.719 119.149 121.71 118.738 121.985 117.642C121.868 117.606 121.745 117.548 121.628 117.483H121.622ZM88.6901 121.307L64.4839 108.992C63.1469 108.312 61.98 106.553 61.8686 105.058L60.8366 90.8612C60.8248 90.697 60.8248 90.5445 60.8366 90.4038C59.5817 89.8174 58.6786 90.4683 58.7783 91.905L59.8104 106.101C59.9159 107.591 61.0887 109.356 62.4257 110.036L86.6318 122.344C87.787 122.937 88.7311 122.515 88.9363 121.418C88.8542 121.383 88.7722 121.348 88.6842 121.307H88.6901ZM120.379 155.053L97.1575 143.754C95.8147 143.097 94.6947 141.349 94.6654 139.854L94.4543 129.95C94.4543 129.751 94.466 129.557 94.4953 129.393C93.2874 128.924 92.3667 129.598 92.396 131L92.6071 140.904C92.6423 142.399 93.7565 144.146 95.0993 144.803L118.32 156.103C119.458 156.66 120.449 156.255 120.748 155.2C120.625 155.165 120.496 155.112 120.373 155.053H120.379ZM88.1271 99.657L62.7951 86.1701C61.4699 85.4664 60.3088 83.6838 60.2032 82.1885L59.1712 67.992C59.1595 67.8454 59.1595 67.7105 59.1712 67.5815C57.9222 66.9658 57.0192 67.5932 57.1188 69.0416L58.1509 83.2381C58.2623 84.7334 59.4175 86.516 60.7427 87.2197L86.0748 100.707C87.2417 101.322 88.1858 100.9 88.3617 99.7684C88.2855 99.7391 88.2092 99.7039 88.1271 99.6629V99.657ZM89.1592 139.86L65.9264 128.554C64.5836 127.898 63.3991 126.156 63.2877 124.667L62.496 113.742C62.4843 113.56 62.4843 113.39 62.5078 113.232C61.2529 112.687 60.3381 113.349 60.4437 114.786L61.2412 125.716C61.3526 127.206 62.5254 128.947 63.8741 129.604L87.1068 140.91C88.2679 141.472 89.2119 141.05 89.423 139.971C89.3351 139.942 89.2471 139.907 89.165 139.866L89.1592 139.86Z" fill="#F0860E"/>
<path opacity="0.2" d="M151.563 170.235L128.365 158.941C127.022 158.29 125.973 156.543 126.031 155.047L126.371 146.158C126.383 145.941 126.407 145.741 126.465 145.56C125.298 145.173 124.372 145.847 124.319 147.196L123.979 156.091C123.926 157.586 124.964 159.328 126.319 159.985L149.51 171.279C150.642 171.824 151.686 171.437 152.073 170.417C151.903 170.381 151.739 170.311 151.569 170.235H151.563ZM155.14 135.333L129.755 121.817C128.43 121.113 127.409 119.33 127.468 117.835L127.92 106.072C127.92 105.89 127.955 105.714 127.99 105.556C126.841 105.116 125.92 105.755 125.861 107.116L125.41 118.879C125.351 120.368 126.377 122.157 127.697 122.86L153.082 136.377C154.213 136.981 155.257 136.594 155.626 135.532C155.468 135.491 155.298 135.421 155.14 135.333ZM153.216 154.121L129.01 141.813C127.673 141.132 126.641 139.367 126.7 137.872L127.151 126.115C127.151 125.916 127.187 125.728 127.233 125.564C126.072 125.147 125.152 125.81 125.099 127.165L124.647 138.916C124.589 140.411 125.621 142.176 126.958 142.856L151.17 155.165C152.302 155.739 153.34 155.352 153.721 154.314C153.556 154.273 153.392 154.203 153.222 154.121H153.216ZM120.953 137.714L96.7471 125.4C95.4101 124.719 94.3018 122.96 94.2725 121.465L93.9969 108.494C93.9969 108.312 94.0086 108.136 94.0321 107.978C92.83 107.485 91.9093 108.142 91.9387 109.538L92.2143 122.509C92.2494 124.004 93.3519 125.769 94.6888 126.443L118.895 138.757C120.038 139.338 121.024 138.939 121.317 137.86C121.2 137.825 121.076 137.767 120.953 137.708V137.714ZM121.622 117.483L96.2662 103.985C94.941 103.287 93.8444 101.498 93.8151 100.003L93.5336 87.0203C93.5336 86.8503 93.5336 86.6978 93.563 86.5512C92.3667 86.0235 91.4461 86.6626 91.4813 88.07L91.7627 101.047C91.7979 102.542 92.8945 104.331 94.2139 105.034L119.575 118.533C120.719 119.149 121.71 118.738 121.985 117.642C121.868 117.606 121.745 117.548 121.628 117.483H121.622ZM88.6901 121.307L64.4839 108.992C63.1469 108.312 61.98 106.553 61.8686 105.058L60.8366 90.8612C60.8248 90.697 60.8248 90.5445 60.8366 90.4038C59.5817 89.8174 58.6786 90.4683 58.7783 91.905L59.8104 106.101C59.9159 107.591 61.0887 109.356 62.4257 110.036L86.6318 122.344C87.787 122.937 88.7311 122.515 88.9363 121.418C88.8542 121.383 88.7722 121.348 88.6842 121.307H88.6901ZM120.379 155.053L97.1575 143.754C95.8147 143.097 94.6947 141.349 94.6654 139.854L94.4543 129.95C94.4543 129.751 94.466 129.557 94.4953 129.393C93.2874 128.924 92.3667 129.598 92.396 131L92.6071 140.904C92.6423 142.399 93.7565 144.146 95.0993 144.803L118.32 156.103C119.458 156.66 120.449 156.255 120.748 155.2C120.625 155.165 120.496 155.112 120.373 155.053H120.379ZM88.1271 99.657L62.7951 86.1701C61.4699 85.4664 60.3088 83.6838 60.2032 82.1885L59.1712 67.992C59.1595 67.8454 59.1595 67.7105 59.1712 67.5815C57.9222 66.9658 57.0192 67.5932 57.1188 69.0416L58.1509 83.2381C58.2623 84.7334 59.4175 86.516 60.7427 87.2197L86.0748 100.707C87.2417 101.322 88.1858 100.9 88.3617 99.7684C88.2855 99.7391 88.2092 99.7039 88.1271 99.6629V99.657ZM89.1592 139.86L65.9264 128.554C64.5836 127.898 63.3991 126.156 63.2877 124.667L62.496 113.742C62.4843 113.56 62.4843 113.39 62.5078 113.232C61.2529 112.687 60.3381 113.349 60.4437 114.786L61.2412 125.716C61.3526 127.206 62.5254 128.947 63.8741 129.604L87.1068 140.91C88.2679 141.472 89.2119 141.05 89.423 139.971C89.3351 139.942 89.2471 139.907 89.165 139.866L89.1592 139.86Z" fill="white"/>
<path d="M214.782 89.7L165.554 118.122C164.299 118.844 162.675 119.231 161.027 119.266L154.935 175.143C156.594 175.055 158.23 174.65 159.473 173.929L208.009 145.905C209.205 145.214 209.868 144.287 209.997 143.331L210.014 143.191L216.781 87.2079C216.593 88.1578 215.919 89.0491 214.776 89.7059L214.782 89.7ZM208.707 113.719L207.422 124.391C207.241 125.874 206.05 127.686 204.754 128.437L187.092 138.634C186.905 138.746 186.723 138.816 186.553 138.875C186.535 138.705 186.535 138.523 186.553 138.329L187.679 127.851C187.837 126.361 189.016 124.543 190.317 123.793L208.202 113.425C208.384 113.32 208.548 113.244 208.712 113.191C208.724 113.355 208.712 113.525 208.695 113.724L208.707 113.719ZM182.794 128.707L181.639 139.262C181.475 140.751 180.296 142.563 179 143.314L161.08 153.658C160.898 153.763 160.722 153.839 160.552 153.898C160.535 153.728 160.535 153.552 160.552 153.359L161.707 142.798C161.877 141.308 163.056 139.496 164.352 138.746L182.26 128.402C182.442 128.29 182.624 128.22 182.794 128.167C182.812 128.337 182.812 128.513 182.794 128.707ZM210.958 94.9951L209.68 105.662C209.498 107.145 208.302 108.957 207.006 109.714L189.08 120.063C188.898 120.169 188.728 120.245 188.564 120.298C188.552 120.134 188.564 119.958 188.582 119.758L189.866 109.092C190.048 107.603 191.238 105.791 192.534 105.04L210.466 94.6902C210.647 94.5847 210.812 94.5084 210.976 94.4557C210.988 94.6199 210.976 94.7958 210.958 94.9951ZM185.016 109.966L183.709 120.661C183.527 122.145 182.325 123.957 181.029 124.708L163.121 135.051C162.939 135.163 162.757 135.233 162.587 135.286C162.569 135.116 162.569 134.94 162.587 134.746L163.748 124.186C163.912 122.702 165.097 120.884 166.393 120.134L184.518 109.672C184.694 109.567 184.864 109.491 185.022 109.444C185.034 109.608 185.022 109.778 185.005 109.972L185.016 109.966ZM158.805 169.308L159.673 161.404C159.837 159.92 161.015 158.102 162.311 157.352L180.267 146.984C180.454 146.873 180.642 146.791 180.812 146.738C180.835 146.908 180.835 147.084 180.812 147.284L180.026 155.112C179.874 156.595 178.701 158.413 177.405 159.164L159.321 169.602C159.139 169.713 158.957 169.783 158.787 169.842C158.77 169.672 158.77 169.496 158.787 169.302L158.805 169.308ZM184.735 154.32L185.579 146.451C185.738 144.961 186.916 143.149 188.218 142.399L205.956 132.155C206.138 132.049 206.308 131.973 206.472 131.92C206.484 132.084 206.472 132.26 206.455 132.46L205.487 140.452C205.305 141.936 204.115 143.748 202.819 144.498L185.263 154.625C185.075 154.731 184.893 154.813 184.723 154.871C184.706 154.701 184.706 154.525 184.723 154.326L184.735 154.32Z" fill="#F0860E"/>
<path opacity="0.3" d="M214.782 89.7L165.554 118.122C164.299 118.844 162.675 119.231 161.027 119.266L154.935 175.143C156.594 175.055 158.23 174.65 159.473 173.929L208.009 145.905C209.205 145.214 209.868 144.287 209.997 143.331L210.014 143.191L216.781 87.2079C216.593 88.1578 215.919 89.0491 214.776 89.7059L214.782 89.7ZM208.707 113.719L207.422 124.391C207.241 125.874 206.05 127.686 204.754 128.437L187.092 138.634C186.905 138.746 186.723 138.816 186.553 138.875C186.535 138.705 186.535 138.523 186.553 138.329L187.679 127.851C187.837 126.361 189.016 124.543 190.317 123.793L208.202 113.425C208.384 113.32 208.548 113.244 208.712 113.191C208.724 113.355 208.712 113.525 208.695 113.724L208.707 113.719ZM182.794 128.707L181.639 139.262C181.475 140.751 180.296 142.563 179 143.314L161.08 153.658C160.898 153.763 160.722 153.839 160.552 153.898C160.535 153.728 160.535 153.552 160.552 153.359L161.707 142.798C161.877 141.308 163.056 139.496 164.352 138.746L182.26 128.402C182.442 128.29 182.624 128.22 182.794 128.167C182.812 128.337 182.812 128.513 182.794 128.707ZM210.958 94.9951L209.68 105.662C209.498 107.145 208.302 108.957 207.006 109.714L189.08 120.063C188.898 120.169 188.728 120.245 188.564 120.298C188.552 120.134 188.564 119.958 188.582 119.758L189.866 109.092C190.048 107.603 191.238 105.791 192.534 105.04L210.466 94.6902C210.647 94.5847 210.812 94.5084 210.976 94.4557C210.988 94.6199 210.976 94.7958 210.958 94.9951ZM185.016 109.966L183.709 120.661C183.527 122.145 182.325 123.957 181.029 124.708L163.121 135.051C162.939 135.163 162.757 135.233 162.587 135.286C162.569 135.116 162.569 134.94 162.587 134.746L163.748 124.186C163.912 122.702 165.097 120.884 166.393 120.134L184.518 109.672C184.694 109.567 184.864 109.491 185.022 109.444C185.034 109.608 185.022 109.778 185.005 109.972L185.016 109.966ZM158.805 169.308L159.673 161.404C159.837 159.92 161.015 158.102 162.311 157.352L180.267 146.984C180.454 146.873 180.642 146.791 180.812 146.738C180.835 146.908 180.835 147.084 180.812 147.284L180.026 155.112C179.874 156.595 178.701 158.413 177.405 159.164L159.321 169.602C159.139 169.713 158.957 169.783 158.787 169.842C158.77 169.672 158.77 169.496 158.787 169.302L158.805 169.308ZM184.735 154.32L185.579 146.451C185.738 144.961 186.916 143.149 188.218 142.399L205.956 132.155C206.138 132.049 206.308 131.973 206.472 131.92C206.484 132.084 206.472 132.26 206.455 132.46L205.487 140.452C205.305 141.936 204.115 143.748 202.819 144.498L185.263 154.625C185.075 154.731 184.893 154.813 184.723 154.871C184.706 154.701 184.706 154.525 184.723 154.326L184.735 154.32Z" fill="white"/>
<path d="M185.028 109.432C185.04 109.596 185.028 109.766 185.01 109.96L183.703 120.655C183.521 122.139 182.319 123.951 181.023 124.702L163.115 135.045C162.933 135.157 162.751 135.227 162.581 135.28C162.675 136.365 163.513 136.728 164.639 136.078L182.548 125.739C183.844 124.989 185.04 123.177 185.227 121.693L186.535 110.998C186.693 109.713 186.037 109.092 185.022 109.438L185.028 109.432ZM210.97 94.4497C210.982 94.6139 210.97 94.7898 210.952 94.9892L209.674 105.656C209.492 107.139 208.296 108.951 207 109.708L189.074 120.057C188.892 120.163 188.722 120.239 188.558 120.292C188.64 121.377 189.467 121.74 190.605 121.089L208.531 110.74C209.826 109.989 211.023 108.177 211.199 106.694L212.483 96.0213C212.635 94.7429 211.984 94.1155 210.97 94.4556V94.4497ZM182.794 128.155C182.811 128.325 182.811 128.501 182.794 128.695L181.639 139.25C181.475 140.739 180.296 142.551 179 143.302L161.08 153.646C160.898 153.751 160.722 153.828 160.552 153.886C160.646 154.965 161.484 155.335 162.61 154.684L180.525 144.34C181.82 143.589 183.011 141.777 183.169 140.288L184.324 129.727C184.465 128.454 183.808 127.827 182.8 128.155H182.794ZM208.718 113.179C208.73 113.343 208.718 113.513 208.701 113.713L207.416 124.385C207.235 125.868 206.044 127.68 204.748 128.431L187.086 138.628C186.899 138.74 186.717 138.81 186.547 138.869C186.641 139.948 187.485 140.317 188.605 139.666L206.267 129.469C207.563 128.718 208.759 126.906 208.941 125.417L210.225 114.751C210.378 113.472 209.727 112.845 208.712 113.185L208.718 113.179ZM180.812 146.732C180.835 146.902 180.835 147.078 180.812 147.278L180.026 155.106C179.874 156.589 178.701 158.407 177.405 159.158L159.321 169.596C159.139 169.707 158.957 169.777 158.787 169.836C158.881 170.915 159.719 171.284 160.845 170.633L178.93 160.196C180.226 159.445 181.398 157.633 181.551 156.138L182.337 148.315C182.466 147.049 181.809 146.416 180.806 146.732H180.812ZM206.466 131.908C206.478 132.072 206.466 132.248 206.449 132.448L205.481 140.44C205.3 141.924 204.109 143.736 202.813 144.486L185.257 154.613C185.069 154.719 184.887 154.801 184.717 154.86C184.817 155.933 185.655 156.302 186.775 155.651L204.332 145.524C205.628 144.774 206.824 142.962 207.006 141.478L207.968 133.486C208.12 132.202 207.475 131.58 206.461 131.914L206.466 131.908Z" fill="#F0860E"/>
<path d="M214.675 86.6743C214.646 87.0554 214.283 87.4835 213.696 87.8236L164.469 116.246C163.525 116.791 162.164 117.102 160.739 117.102C159.314 117.102 158.077 116.815 157.162 116.31L56.1098 60.2633C55.4295 59.888 55.2595 59.5538 55.2536 59.4893H53.084C53.084 60.4627 53.7407 61.4302 55.0601 62.1632L156.113 118.204C158.734 119.659 162.962 119.624 165.554 118.122L214.781 89.7001C216.135 88.9202 216.827 87.8119 216.845 86.6743H214.675Z" fill="#F0860E"/>
<path opacity="0.7" d="M214.675 86.6743C214.646 87.0554 214.283 87.4835 213.696 87.8236L164.469 116.246C163.525 116.791 162.164 117.102 160.739 117.102C159.314 117.102 158.077 116.815 157.162 116.31L56.1098 60.2633C55.4295 59.888 55.2595 59.5538 55.2536 59.4893H53.084C53.084 60.4627 53.7407 61.4302 55.0601 62.1632L156.113 118.204C158.734 119.659 162.962 119.624 165.554 118.122L214.781 89.7001C216.135 88.9202 216.827 87.8119 216.845 86.6743H214.675Z" fill="white"/>
</g>
<defs>
<clipPath id="clip0_612_12685">
<rect width="271" height="247.943" fill="white"/>
</clipPath>
</defs>
</svg>
